<?xml version="1.0" encoding="utf-8"?>
<!-- Generator: Adobe Illustrator 21.0.2, SVG Export Plug-In . SVG Version: 6.00 Build 0)  -->
<svg version="1.1" id="Layer_1" xmlns="http://www.w3.org/2000/svg" xmlns:xlink="http://www.w3.org/1999/xlink" x="0px" y="0px"
	 viewBox="0 0 285.4 194.1" style="enable-background:new 0 0 285.4 194.1;" xml:space="preserve">
<style type="text/css">
	.st0{fill:none;}
	.st1{clip-path:url(#SVGID_2_);}
	.st2{fill:none;stroke:#EBEBEB;stroke-width:1.07;stroke-linejoin:round;}
	.st3{fill:none;stroke:#52616B;stroke-width:1.07;stroke-linejoin:round;}
	.st4{font-family:'ProximaNova-Regular';}
	.st5{font-size:7px;}
	.st6{font-family:'Helvetica';}
	.st7{font-size:6.3px;}
	.st8{fill:#E1B16A;}
	.st9{fill:#78A5A3;}
</style>
<title>activity</title>
<rect x="-80" y="-49.1" class="st0" width="432" height="288"/>
<g>
	<defs>
		<rect id="SVGID_1_" x="47.4" y="12.6" width="238" height="145.9"/>
	</defs>
	<clipPath id="SVGID_2_">
		<use xlink:href="#SVGID_1_"  style="overflow:visible;"/>
	</clipPath>
	<g class="st1">
		<rect x="47.4" y="12.6" class="st0" width="238" height="145.9"/>
		<line class="st2" x1="47.4" y1="131.2" x2="285.4" y2="131.2"/>
		<line class="st2" x1="47.4" y1="85.6" x2="285.4" y2="85.6"/>
		<line class="st2" x1="47.4" y1="40" x2="285.4" y2="40"/>
		<line class="st2" x1="58.2" y1="158.5" x2="58.2" y2="12.6"/>
		<line class="st2" x1="101.5" y1="158.5" x2="101.5" y2="12.6"/>
		<line class="st2" x1="144.7" y1="158.5" x2="144.7" y2="12.6"/>
		<line class="st2" x1="188" y1="158.5" x2="188" y2="12.6"/>
		<line class="st2" x1="231.3" y1="158.5" x2="231.3" y2="12.6"/>
		<line class="st2" x1="274.6" y1="158.5" x2="274.6" y2="12.6"/>
		<line class="st3" x1="108.4" y1="131.2" x2="200.3" y2="131.2"/>
		<line class="st3" x1="130.7" y1="85.6" x2="215.5" y2="85.6"/>
		<line class="st3" x1="173.3" y1="40" x2="258.1" y2="40"/>
	</g>
</g>
<text transform="matrix(1 0 0 1 2.441406e-04 130.0811)" class="st4 st5">No leisure−time</text>
<g>
	<text transform="matrix(1 0 0 1 0.3602 136.7311)" class="st4 st5">p</text>
	<text transform="matrix(1 0 0 1 4.3802 136.7311)" class="st4 st5">h</text>
	<text transform="matrix(1 0 0 1 8.0302 136.7311)" class="st4 st5">ysical activity</text>
</g>
<text transform="matrix(1 0 0 1 22.5703 87.8211)" class="st4 st5">Obesity</text>
<text transform="matrix(1 0 0 1 1.5602 38.9111)" class="st4 st5">Sleep less than</text>
<text transform="matrix(1 0 0 1 22.9202 45.5611)" class="st6 st7">7 hours</text>
<text transform="matrix(1 0 0 1 56.4503 166.4711)" class="st4 st5">0</text>
<text transform="matrix(1 0 0 1 97.9702 166.4711)" class="st4 st5">10</text>
<text transform="matrix(1 0 0 1 141.2402 166.4711)" class="st4 st5">20</text>
<text transform="matrix(1 0 0 1 184.5102 166.4711)" class="st4 st5">30</text>
<text transform="matrix(1 0 0 1 227.7702 166.4711)" class="st4 st5">40</text>
<text transform="matrix(1 0 0 1 271.0402 166.4711)" class="st4 st5">50</text>
<text transform="matrix(1 0 0 1 0.3602 191.8011)" class="st4 st5">Source: CDC 500 Cities Project</text>
<text transform="matrix(1 0 0 1 2.441406e-04 5.8311)" class="st4 st5">P</text>
<text transform="matrix(1 0 0 1 4.0202 5.8311)" class="st4 st5">ercent reporting, </text>
<text transform="matrix(1 0 0 1 56.9002 5.8311)" class="st4 st5">D</text>
<text transform="matrix(1 0 0 1 61.6102 5.8311)" class="st4 st5">.C</text>
<text transform="matrix(1 0 0 1 67.9602 5.8311)" class="st4 st5">.</text>
<text transform="matrix(1 0 0 1 69.0302 5.8311)" class="st4 st5">’</text>
<text transform="matrix(1 0 0 1 70.4302 5.8311)" class="st4 st5">s lowest and highest income communities</text>
<circle class="st8" cx="172.2" cy="39.6" r="3.9"/>
<circle class="st8" cx="129.8" cy="85.6" r="3.9"/>
<circle class="st8" cx="107.3" cy="131.5" r="3.9"/>
<circle class="st9" cx="257.4" cy="39.6" r="3.9"/>
<circle class="st9" cx="215.2" cy="85.6" r="3.9"/>
<circle class="st9" cx="199.5" cy="131.5" r="3.9"/>
<g>
	<text transform="matrix(1 0 0 1 247.6602 48.5311)" class="st9 st4 st7">lowest</text>
	<text transform="matrix(1 0 0 1 247.6602 54.8311)" class="st9 st4 st7">income</text>
</g>
<g>
	<text transform="matrix(1 0 0 1 160.8602 48.5311)" class="st8 st4 st7">highest</text>
	<text transform="matrix(1 0 0 1 160.8602 54.8311)" class="st8 st4 st7">income</text>
</g>
</svg>
