<svg id="Layer_1" data-name="Layer 1" xmlns="http://www.w3.org/2000/svg" xmlns:xlink="http://www.w3.org/1999/xlink" viewBox="0 0 285.36 198.58"><defs><style>.cls-1,.cls-3,.cls-4{fill:none;}.cls-2{clip-path:url(#clip-path);}.cls-3{stroke:#ebebeb;}.cls-3,.cls-4{stroke-linejoin:round;stroke-width:1.07px;}.cls-4{stroke:#52616b;}.cls-5,.cls-6{font-size:8.96px;font-family:MyriadPro-Regular, Myriad Pro;}.cls-13,.cls-15,.cls-5{fill:#e1b16a;}.cls-14,.cls-16,.cls-6{fill:#78a5a3;}.cls-7{font-size:7px;}.cls-15,.cls-16,.cls-7{font-family:ProximaNova-Regular, Proxima Nova;}.cls-8{letter-spacing:0.04em;}.cls-9{letter-spacing:0em;}.cls-10{letter-spacing:0.01em;}.cls-11{letter-spacing:0em;}.cls-12{letter-spacing:-0.02em;}.cls-15,.cls-16{font-size:6.3px;}</style><clipPath id="clip-path" transform="translate(-2 -3.02)"><rect class="cls-1" x="61.7" y="15.13" width="225.67" height="147.57"/></clipPath></defs><title>chronic</title><g class="cls-2"><rect class="cls-1" x="59.7" y="12.11" width="225.67" height="147.57"/><line class="cls-3" x1="59.7" y1="138.59" x2="285.36" y2="138.59"/><line class="cls-3" x1="59.7" y1="103.46" x2="285.36" y2="103.46"/><line class="cls-3" x1="59.7" y1="68.33" x2="285.36" y2="68.33"/><line class="cls-3" x1="59.7" y1="33.19" x2="285.36" y2="33.19"/><line class="cls-3" x1="69.95" y1="159.68" x2="69.95" y2="12.11"/><line class="cls-3" x1="121.24" y1="159.68" x2="121.24" y2="12.11"/><line class="cls-3" x1="172.53" y1="159.68" x2="172.53" y2="12.11"/><line class="cls-3" x1="223.82" y1="159.68" x2="223.82" y2="12.11"/><line class="cls-3" x1="275.11" y1="159.68" x2="275.11" y2="12.11"/><line class="cls-4" x1="111.24" y1="138.59" x2="141.5" y2="138.59"/><text class="cls-5" transform="translate(107.69 141.7)">●</text><text x="-2" y="-3.02"></text><text class="cls-6" transform="translate(137.95 141.7)">●</text><text x="-2" y="-3.02"></text><line class="cls-4" x1="97.39" y1="103.46" x2="145.86" y2="103.46"/><text class="cls-5" transform="translate(93.84 106.57)">●</text><text x="-2" y="-3.02"></text><text class="cls-6" transform="translate(142.31 106.57)">●</text><text x="-2" y="-3.02"></text><line class="cls-4" x1="153.55" y1="68.33" x2="203.81" y2="68.33"/><text class="cls-5" transform="translate(150 71.44)">●</text><text x="-2" y="-3.02"></text><text class="cls-6" transform="translate(200.26 71.44)">●</text><text x="-2" y="-3.02"></text><line class="cls-4" x1="189.2" y1="33.19" x2="265.36" y2="33.19"/><text class="cls-5" transform="translate(185.65 36.3)">●</text><text x="-2" y="-3.02"></text><text x="-2" y="-3.02"></text></g><text class="cls-7" transform="translate(34.89 140.85)">Asthma</text><text class="cls-7" transform="translate(31.38 105.72)">Diabetes</text><text class="cls-7" transform="translate(34.54 70.59)">A<tspan class="cls-8" x="4.61" y="0">r</tspan><tspan class="cls-9" x="7.19" y="0">th</tspan><tspan class="cls-10" x="13.11" y="0">r</tspan><tspan class="cls-11" x="15.52" y="0">itis</tspan></text><text class="cls-7" transform="translate(0 35.45)">High <tspan class="cls-12" x="16.25" y="0">b</tspan><tspan x="20.13" y="0">lood pressure</tspan></text><text class="cls-7" transform="translate(68.2 167.65)">0</text><text class="cls-7" transform="translate(117.74 167.65)">10</text><text class="cls-7" transform="translate(169.03 167.65)">20</text><text class="cls-7" transform="translate(220.31 167.65)">30</text><text class="cls-7" transform="translate(271.6 167.65)">40</text><text class="cls-7" transform="translate(0 195.48)">Source: CDC 500 Cities Project</text><text class="cls-7" transform="translate(0 5.83)">Percent reporting, D.C.’s lowest and highest income communities</text><image width="300" height="150" transform="translate(239.73 175.71) scale(0.15 0.15)" xlink:href="../../Website/DataLensDCsite/iframes/dcpc/dcpcSm.png"/><circle class="cls-13" cx="109.76" cy="138.85" r="3.85"/><circle class="cls-13" cx="96" cy="103.72" r="3.85"/><circle class="cls-13" cx="152.5" cy="67.74" r="3.85"/><circle class="cls-13" cx="187.11" cy="32.6" r="3.85"/><circle class="cls-14" cx="140.5" cy="138.59" r="3.85"/><circle class="cls-14" cx="144.8" cy="103.72" r="3.85"/><circle class="cls-14" cx="203" cy="67.74" r="3.85"/><circle class="cls-14" cx="264.55" cy="33.53" r="3.85"/><text class="cls-15" transform="translate(178 41.83)">highest<tspan x="0" y="6.3">income</tspan></text><text class="cls-16" transform="translate(256.3 41.83)">lowest<tspan x="0" y="6.3">income</tspan></text></svg>