<svg id="Layer_1" data-name="Layer 1" xmlns="http://www.w3.org/2000/svg" xmlns:xlink="http://www.w3.org/1999/xlink" viewBox="0 0 298.87 190.58"><defs><style>.cls-1,.cls-3,.cls-4,.cls-5{fill:none;}.cls-2{clip-path:url(#clip-path);}.cls-3{stroke:#ebebeb;}.cls-3,.cls-4{stroke-linejoin:round;stroke-width:1.07px;}.cls-4{stroke:#52616b;}.cls-5{font-size:8.96px;font-family:MyriadPro-Regular, Myriad Pro;}.cls-14,.cls-6{font-size:7px;}.cls-17,.cls-18,.cls-6{font-family:ProximaNova-Regular, Proxima Nova;}.cls-7{letter-spacing:-0.03em;}.cls-8{letter-spacing:0em;}.cls-9{letter-spacing:-0.05em;}.cls-10{letter-spacing:-0.03em;}.cls-11{letter-spacing:-0.01em;}.cls-12{letter-spacing:-0.02em;}.cls-13{letter-spacing:0em;}.cls-14{font-family:Helvetica, Helvetica;}.cls-15,.cls-17{fill:#e1b16a;}.cls-16,.cls-18{fill:#78a5a3;}.cls-17{font-size:5.77px;}.cls-18{font-size:6.3px;}</style><clipPath id="clip-path" transform="translate(-3.53 -0.22)"><rect class="cls-1" x="41.71" y="16" width="256.85" height="135.9"/></clipPath></defs><title>health</title><g class="cls-2"><rect class="cls-1" x="38.18" y="15.78" width="256.85" height="135.9"/><line class="cls-3" x1="38.18" y1="114.61" x2="295.03" y2="114.61"/><line class="cls-3" x1="38.18" y1="52.84" x2="295.03" y2="52.84"/><line class="cls-3" x1="49.85" y1="151.68" x2="49.85" y2="15.77"/><line class="cls-3" x1="108.23" y1="151.68" x2="108.23" y2="15.77"/><line class="cls-3" x1="166.61" y1="151.68" x2="166.61" y2="15.77"/><line class="cls-3" x1="224.98" y1="151.68" x2="224.98" y2="15.77"/><line class="cls-3" x1="283.35" y1="151.68" x2="283.35" y2="15.77"/><line class="cls-4" x1="116.98" y1="114.61" x2="233.74" y2="114.61"/><text class="cls-5" transform="translate(113.44 117.72)">●</text><text x="-3.53" y="-0.22"></text><text class="cls-5" transform="translate(230.19 117.72)">●</text><text x="-3.53" y="-0.22"></text><line class="cls-4" x1="135.67" y1="52.84" x2="250.66" y2="52.84"/><text class="cls-5" transform="translate(132.12 55.95)">●</text><text x="-3.53" y="-0.22"></text><text class="cls-5" transform="translate(247.11 55.95)">●</text><text x="-3.53" y="-0.22"></text></g><text class="cls-6" transform="translate(11.46 116.87)">P<tspan class="cls-7" x="4.11" y="0">h</tspan><tspan class="cls-8" x="7.76" y="0">ysical</tspan></text><text class="cls-6" transform="translate(15.82 55.1)">Mental</text><text class="cls-6" transform="translate(48.1 159.65)">0</text><text class="cls-6" transform="translate(106.48 159.65)">5</text><text class="cls-6" transform="translate(163.1 159.65)">10</text><text class="cls-6" transform="translate(221.48 159.65)">15</text><text class="cls-6" transform="translate(279.85 159.65)">20</text><text class="cls-6" transform="translate(5.83 132.15) rotate(-90)"><tspan class="cls-9">P</tspan><tspan x="3.76" y="0">oor Health </tspan><tspan class="cls-10" x="37.8" y="0">f</tspan><tspan x="39.58" y="0">or </tspan><tspan class="cls-11" x="47.7" y="0">o</tspan><tspan class="cls-12" x="51.6" y="0">v</tspan><tspan x="54.85" y="0">er 14 d</tspan><tspan class="cls-7" x="75.02" y="0">a</tspan><tspan class="cls-13" x="78.5" y="0">ys</tspan></text><text class="cls-14" transform="translate(0.33 184.98)">Source: CDC 500 Cities Project</text><text class="cls-6" transform="translate(0.33 5.83)">Percent reporting, D.C.’s lowest and highest income communities</text><circle class="cls-15" cx="116.17" cy="114.02" r="3.85"/><circle class="cls-15" cx="134.33" cy="52.25" r="3.85"/><circle class="cls-16" cx="232.67" cy="114.02" r="3.85"/><circle class="cls-16" cx="249.88" cy="52.25" r="3.85"/><text class="cls-17" transform="translate(125.17 61.53) scale(1.09 1)">highest<tspan x="0" y="5.77">income</tspan></text><text class="cls-18" transform="translate(241.47 61.53)">lowest<tspan x="0" y="6.3">income</tspan></text><image width="300" height="150" transform="translate(253.23 167.71) scale(0.15 0.15)" xlink:href="../../Website/DataLensDCsite/iframes/dcpc/dcpcSm.png"/></svg>