<svg id="Layer_1" data-name="Layer 1" xmlns="http://www.w3.org/2000/svg" xmlns:xlink="http://www.w3.org/1999/xlink" viewBox="0 0 801.05 519.91"><defs><style>.cls-1,.cls-27,.cls-4{fill:none;}.cls-2{clip-path:url(#clip-path);}.cls-3{fill:#f2f2f2;}.cls-4{stroke:#ebebeb;}.cls-27,.cls-4{stroke-linejoin:round;stroke-width:1.07px;}.cls-5{fill:#fc8d62;}.cls-6{fill:#8da0cb;}.cls-7{clip-path:url(#clip-path-2);}.cls-8{clip-path:url(#clip-path-3);}.cls-9{clip-path:url(#clip-path-4);}.cls-10{clip-path:url(#clip-path-5);}.cls-11{clip-path:url(#clip-path-6);}.cls-12{clip-path:url(#clip-path-7);}.cls-13{clip-path:url(#clip-path-8);}.cls-14{clip-path:url(#clip-path-9);}.cls-15{clip-path:url(#clip-path-10);}.cls-16{clip-path:url(#clip-path-11);}.cls-17{clip-path:url(#clip-path-12);}.cls-18{clip-path:url(#clip-path-13);}.cls-19{clip-path:url(#clip-path-14);}.cls-20{clip-path:url(#clip-path-15);}.cls-21{clip-path:url(#clip-path-16);}.cls-22{clip-path:url(#clip-path-17);}.cls-23{clip-path:url(#clip-path-18);}.cls-24{clip-path:url(#clip-path-19);}.cls-25{clip-path:url(#clip-path-20);}.cls-26{fill:#ccc;}.cls-27{stroke:#ccc;stroke-linecap:round;}.cls-28{font-size:11px;fill:#1a1a1a;}.cls-28,.cls-68,.cls-69,.cls-70,.cls-71,.cls-73{font-family:Helvetica, Helvetica;}.cls-29{letter-spacing:-0.02em;}.cls-30{clip-path:url(#clip-path-21);}.cls-31{letter-spacing:-0.12em;}.cls-32{letter-spacing:-0.02em;}.cls-33{letter-spacing:0.01em;}.cls-34{letter-spacing:-0.01em;}.cls-35{clip-path:url(#clip-path-22);}.cls-36{clip-path:url(#clip-path-23);}.cls-37{letter-spacing:-0.03em;}.cls-38{clip-path:url(#clip-path-24);}.cls-39{letter-spacing:-0.02em;}.cls-40{letter-spacing:-0.02em;}.cls-41{letter-spacing:-0.04em;}.cls-42{letter-spacing:0.01em;}.cls-43{clip-path:url(#clip-path-25);}.cls-44{clip-path:url(#clip-path-26);}.cls-45{clip-path:url(#clip-path-27);}.cls-46{letter-spacing:-0.02em;}.cls-47{letter-spacing:-0.14em;}.cls-48{clip-path:url(#clip-path-28);}.cls-49{letter-spacing:-0.05em;}.cls-50{letter-spacing:0em;}.cls-51{letter-spacing:-0.01em;}.cls-52{letter-spacing:0.04em;}.cls-53{clip-path:url(#clip-path-29);}.cls-54{clip-path:url(#clip-path-30);}.cls-55{clip-path:url(#clip-path-31);}.cls-56{letter-spacing:-0.01em;}.cls-57{letter-spacing:0em;}.cls-58{clip-path:url(#clip-path-32);}.cls-59{clip-path:url(#clip-path-33);}.cls-60{clip-path:url(#clip-path-34);}.cls-61{clip-path:url(#clip-path-35);}.cls-62{clip-path:url(#clip-path-36);}.cls-63{clip-path:url(#clip-path-37);}.cls-64{clip-path:url(#clip-path-38);}.cls-65{letter-spacing:-0.03em;}.cls-66{letter-spacing:-0.03em;}.cls-67{letter-spacing:-0.04em;}.cls-68,.cls-69,.cls-71{font-size:10px;}.cls-68{fill:#738abf;}.cls-69{fill:#fb6f37;}.cls-70,.cls-73{font-size:9px;}.cls-71,.cls-73{fill:#4d4d4d;}.cls-72{letter-spacing:-0.05em;}</style><clipPath id="clip-path" transform="translate(155 -8.14)"><rect class="cls-1" x="142.67" y="199.56" width="122.48" height="63.61"/></clipPath><clipPath id="clip-path-2" transform="translate(155 -8.14)"><rect class="cls-1" x="270.01" y="199.56" width="122.48" height="63.61"/></clipPath><clipPath id="clip-path-3" transform="translate(155 -8.14)"><rect class="cls-1" x="15.23" y="111.97" width="122.48" height="63.61"/></clipPath><clipPath id="clip-path-4" transform="translate(155 -8.14)"><rect class="cls-1" x="396.68" y="286.95" width="122.48" height="63.61"/></clipPath><clipPath id="clip-path-5" transform="translate(155 -8.14)"><rect class="cls-1" x="523.04" y="199.56" width="122.48" height="63.61"/></clipPath><clipPath id="clip-path-6" transform="translate(155 -8.14)"><rect class="cls-1" x="15.23" y="375.8" width="122.48" height="63.61"/></clipPath><clipPath id="clip-path-7" transform="translate(155 -8.14)"><rect class="cls-1" x="270.01" y="375.8" width="122.48" height="63.61"/></clipPath><clipPath id="clip-path-8" transform="translate(155 -8.14)"><rect class="cls-1" x="396.68" y="111.97" width="122.48" height="63.61"/></clipPath><clipPath id="clip-path-9" transform="translate(155 -8.14)"><rect class="cls-1" x="396.68" y="199.56" width="122.48" height="63.61"/></clipPath><clipPath id="clip-path-10" transform="translate(155 -8.14)"><rect class="cls-1" x="142.67" y="286.95" width="122.48" height="63.61"/></clipPath><clipPath id="clip-path-11" transform="translate(155 -8.14)"><rect class="cls-1" x="270.01" y="286.95" width="122.48" height="63.61"/></clipPath><clipPath id="clip-path-12" transform="translate(155 -8.14)"><rect class="cls-1" x="142.67" y="375.8" width="122.48" height="63.61"/></clipPath><clipPath id="clip-path-13" transform="translate(155 -8.14)"><rect class="cls-1" x="142.67" y="463.61" width="122.48" height="63.61"/></clipPath><clipPath id="clip-path-14" transform="translate(155 -8.14)"><rect class="cls-1" x="15.23" y="26.28" width="122.48" height="63.61"/></clipPath><clipPath id="clip-path-15" transform="translate(155 -8.14)"><rect class="cls-1" x="15.23" y="463.61" width="122.48" height="63.61"/></clipPath><clipPath id="clip-path-16" transform="translate(155 -8.14)"><rect class="cls-1" x="15.23" y="286.95" width="122.48" height="63.61"/></clipPath><clipPath id="clip-path-17" transform="translate(155 -8.14)"><rect class="cls-1" x="142.67" y="111.97" width="122.48" height="63.61"/></clipPath><clipPath id="clip-path-18" transform="translate(155 -8.14)"><rect class="cls-1" x="15.23" y="199.56" width="122.48" height="63.61"/></clipPath><clipPath id="clip-path-19" transform="translate(155 -8.14)"><rect class="cls-1" x="270.01" y="111.97" width="122.48" height="63.61"/></clipPath><clipPath id="clip-path-20" transform="translate(155 -8.14)"><rect class="cls-1" x="396.68" y="268.16" width="122.48" height="18.86"/></clipPath><clipPath id="clip-path-21" transform="translate(155 -8.14)"><rect class="cls-1" x="396.68" y="93.1" width="122.48" height="18.86"/></clipPath><clipPath id="clip-path-22" transform="translate(155 -8.14)"><rect class="cls-1" x="142.67" y="356.94" width="122.48" height="18.86"/></clipPath><clipPath id="clip-path-23" transform="translate(155 -8.14)"><rect class="cls-1" x="15.23" y="268.16" width="122.48" height="18.86"/></clipPath><clipPath id="clip-path-24" transform="translate(155 -8.14)"><rect class="cls-1" x="15.23" y="93.1" width="122.48" height="18.86"/></clipPath><clipPath id="clip-path-25" transform="translate(155 -8.14)"><rect class="cls-1" x="270.01" y="356.94" width="122.48" height="18.86"/></clipPath><clipPath id="clip-path-26" transform="translate(155 -8.14)"><rect class="cls-1" x="270.01" y="268.16" width="122.48" height="18.86"/></clipPath><clipPath id="clip-path-27" transform="translate(155 -8.14)"><rect class="cls-1" x="15.23" y="444.75" width="122.48" height="18.86"/></clipPath><clipPath id="clip-path-28" transform="translate(155 -8.14)"><rect class="cls-1" x="270.01" y="93.1" width="122.48" height="18.86"/></clipPath><clipPath id="clip-path-29" transform="translate(155 -8.14)"><rect class="cls-1" x="270.01" y="180.7" width="122.48" height="18.86"/></clipPath><clipPath id="clip-path-30" transform="translate(155 -8.14)"><rect class="cls-1" x="15.23" y="356.94" width="122.48" height="18.86"/></clipPath><clipPath id="clip-path-31" transform="translate(155 -8.14)"><rect class="cls-1" x="142.67" y="268.16" width="122.48" height="18.86"/></clipPath><clipPath id="clip-path-32" transform="translate(155 -8.14)"><rect class="cls-1" x="15.23" y="8.68" width="122.48" height="18.86"/></clipPath><clipPath id="clip-path-33" transform="translate(155 -8.14)"><rect class="cls-1" x="15.23" y="180.7" width="122.48" height="18.86"/></clipPath><clipPath id="clip-path-34" transform="translate(155 -8.14)"><rect class="cls-1" x="142.67" y="180.7" width="122.48" height="18.86"/></clipPath><clipPath id="clip-path-35" transform="translate(155 -8.14)"><rect class="cls-1" x="523.04" y="180.7" width="122.48" height="18.86"/></clipPath><clipPath id="clip-path-36" transform="translate(155 -8.14)"><rect class="cls-1" x="396.68" y="180.7" width="122.48" height="18.86"/></clipPath><clipPath id="clip-path-37" transform="translate(155 -8.14)"><rect class="cls-1" x="142.67" y="444.75" width="122.48" height="18.86"/></clipPath><clipPath id="clip-path-38" transform="translate(155 -8.14)"><rect class="cls-1" x="142.67" y="93.1" width="122.48" height="18.86"/></clipPath></defs><title>hoodOpenClose</title><g class="cls-2"><rect class="cls-3" x="297.67" y="191.41" width="122.48" height="63.61"/><line class="cls-4" x1="297.67" y1="252.12" x2="420.15" y2="252.12"/><line class="cls-4" x1="297.67" y1="237.67" x2="420.15" y2="237.67"/><line class="cls-4" x1="297.67" y1="223.21" x2="420.15" y2="223.21"/><line class="cls-4" x1="297.67" y1="208.75" x2="420.15" y2="208.75"/><line class="cls-4" x1="297.67" y1="194.3" x2="420.15" y2="194.3"/><rect class="cls-5" x="305.66" y="223.21" width="13.31" height="0.72"/><rect class="cls-5" x="318.97" y="223.21" width="13.31" height="7.23"/><rect class="cls-5" x="332.28" y="223.21" width="13.31" height="2.17"/><rect class="cls-5" x="345.59" y="223.21" width="13.31" height="4.34"/><rect class="cls-5" x="358.91" y="223.21" width="13.31" height="4.34"/><rect class="cls-5" x="372.22" y="223.21" width="13.31" height="6.51"/><rect class="cls-5" x="385.53" y="223.21" width="13.31" height="6.51"/><rect class="cls-5" x="398.85" y="223.21" width="13.31" height="9.4"/><rect class="cls-6" x="305.66" y="222.49" width="13.31" height="0.72"/><rect class="cls-6" x="318.97" y="218.87" width="13.31" height="4.34"/><rect class="cls-6" x="332.28" y="216.7" width="13.31" height="6.51"/><rect class="cls-6" x="345.59" y="212.37" width="13.31" height="10.84"/><rect class="cls-6" x="358.91" y="219.6" width="13.31" height="3.61"/><rect class="cls-6" x="372.22" y="219.6" width="13.31" height="3.61"/><rect class="cls-6" x="385.53" y="218.87" width="13.31" height="4.34"/><rect class="cls-6" x="398.85" y="215.26" width="13.31" height="7.95"/></g><g class="cls-7"><rect class="cls-3" x="425.01" y="191.41" width="122.48" height="63.61"/><line class="cls-4" x1="425.01" y1="252.13" x2="547.49" y2="252.13"/><line class="cls-4" x1="425.01" y1="237.67" x2="547.49" y2="237.67"/><line class="cls-4" x1="425.01" y1="223.22" x2="547.49" y2="223.22"/><line class="cls-4" x1="425.01" y1="208.76" x2="547.49" y2="208.76"/><line class="cls-4" x1="425.01" y1="194.3" x2="547.49" y2="194.3"/><rect class="cls-5" x="446.31" y="223.21" width="13.31" height="4.34"/><rect class="cls-5" x="459.62" y="223.22" width="13.31" height="2.89"/><rect class="cls-5" x="472.93" y="223.22" width="13.31" height="5.06"/><rect class="cls-5" x="486.25" y="223.21" width="13.31" height="1.45"/><rect class="cls-5" x="499.56" y="223.22" width="13.31" height="3.61"/><rect class="cls-5" x="512.87" y="223.22" width="13.31" height="5.06"/><rect class="cls-5" x="526.19" y="223.21" width="13.31" height="7.23"/><path class="cls-5" d="M278,231.37h0Z" transform="translate(155 -8.14)"/><path class="cls-6" d="M278,231.37h0Z" transform="translate(155 -8.14)"/><rect class="cls-6" x="446.31" y="215.99" width="13.31" height="7.23"/><rect class="cls-6" x="459.62" y="214.55" width="13.31" height="8.67"/><rect class="cls-6" x="472.93" y="213.1" width="13.31" height="10.12"/><rect class="cls-6" x="486.25" y="219.61" width="13.31" height="3.61"/><rect class="cls-6" x="499.56" y="211.65" width="13.31" height="11.57"/><rect class="cls-6" x="512.87" y="217.44" width="13.31" height="5.78"/><rect class="cls-6" x="526.19" y="217.44" width="13.31" height="5.78"/></g><g class="cls-8"><rect class="cls-3" x="170.23" y="103.82" width="122.48" height="63.61"/><line class="cls-4" x1="170.23" y1="164.53" x2="292.71" y2="164.53"/><line class="cls-4" x1="170.23" y1="150.08" x2="292.71" y2="150.08"/><line class="cls-4" x1="170.23" y1="135.62" x2="292.71" y2="135.62"/><line class="cls-4" x1="170.23" y1="121.16" x2="292.71" y2="121.16"/><line class="cls-4" x1="170.23" y1="106.71" x2="292.71" y2="106.71"/><rect class="cls-5" x="191.53" y="135.62" width="13.31" height="2.89"/><rect class="cls-5" x="204.84" y="135.62" width="13.31" height="2.89"/><rect class="cls-5" x="218.15" y="135.62" width="13.31" height="2.17"/><rect class="cls-5" x="231.47" y="135.62" width="13.31" height="1.45"/><rect class="cls-5" x="244.78" y="135.62" width="13.31" height="0.72"/><rect class="cls-5" x="271.41" y="135.62" width="13.31" height="0.72"/><path class="cls-5" d="M23.22,143.77h0Z" transform="translate(155 -8.14)"/><path class="cls-6" d="M23.22,143.77h0Z" transform="translate(155 -8.14)"/><rect class="cls-6" x="191.53" y="133.45" width="13.31" height="2.17"/><rect class="cls-6" x="204.84" y="132.73" width="13.31" height="2.89"/><rect class="cls-6" x="218.15" y="129.84" width="13.31" height="5.78"/><path class="cls-6" d="M76.47,143.77h0Z" transform="translate(155 -8.14)"/><rect class="cls-6" x="244.78" y="134.17" width="13.31" height="1.45"/><path class="cls-5" d="M103.09,143.77h0Z" transform="translate(155 -8.14)"/><rect class="cls-6" x="258.09" y="134.9" width="13.31" height="0.72"/><rect class="cls-6" x="271.41" y="132.73" width="13.31" height="2.89"/></g><g class="cls-9"><rect class="cls-3" x="551.68" y="278.81" width="122.48" height="63.61"/><line class="cls-4" x1="551.68" y1="339.53" x2="674.16" y2="339.53"/><line class="cls-4" x1="551.68" y1="325.07" x2="674.16" y2="325.07"/><line class="cls-4" x1="551.68" y1="310.62" x2="674.16" y2="310.62"/><line class="cls-4" x1="551.68" y1="296.16" x2="674.16" y2="296.16"/><line class="cls-4" x1="551.68" y1="281.7" x2="674.16" y2="281.7"/><rect class="cls-5" x="572.98" y="310.61" width="13.31" height="7.23"/><rect class="cls-5" x="586.29" y="310.61" width="13.31" height="2.17"/><rect class="cls-5" x="599.6" y="310.62" width="13.31" height="10.12"/><rect class="cls-5" x="612.92" y="310.61" width="13.31" height="2.17"/><rect class="cls-5" x="626.23" y="310.62" width="13.31" height="5.06"/><rect class="cls-5" x="639.54" y="310.62" width="13.31" height="7.95"/><rect class="cls-5" x="652.86" y="310.61" width="13.31" height="12.29"/><path class="cls-5" d="M404.67,318.76h0Z" transform="translate(155 -8.14)"/><rect class="cls-6" x="559.67" y="309.17" width="13.31" height="1.45"/><rect class="cls-6" x="572.98" y="296.89" width="13.31" height="13.73"/><rect class="cls-6" x="586.29" y="295.44" width="13.31" height="15.18"/><rect class="cls-6" x="599.6" y="299.78" width="13.31" height="10.84"/><rect class="cls-6" x="612.92" y="304.84" width="13.31" height="5.78"/><rect class="cls-6" x="626.23" y="291.1" width="13.31" height="19.52"/><rect class="cls-6" x="639.54" y="303.39" width="13.31" height="7.23"/><rect class="cls-6" x="652.86" y="293.27" width="13.31" height="17.35"/></g><g class="cls-10"><rect class="cls-3" x="678.04" y="191.41" width="122.48" height="63.61"/><line class="cls-4" x1="678.04" y1="252.12" x2="800.51" y2="252.12"/><line class="cls-4" x1="678.04" y1="237.67" x2="800.51" y2="237.67"/><line class="cls-4" x1="678.04" y1="223.21" x2="800.51" y2="223.21"/><line class="cls-4" x1="678.04" y1="208.75" x2="800.51" y2="208.75"/><line class="cls-4" x1="678.04" y1="194.3" x2="800.51" y2="194.3"/><rect class="cls-5" x="725.96" y="223.21" width="13.31" height="0.72"/><rect class="cls-5" x="765.9" y="223.21" width="13.31" height="0.72"/><rect class="cls-5" x="779.21" y="223.21" width="13.31" height="0.72"/><path class="cls-5" d="M531,231.36h0Z" transform="translate(155 -8.14)"/><path class="cls-6" d="M531,231.36h0Z" transform="translate(155 -8.14)"/><path class="cls-5" d="M544.34,231.36h0Z" transform="translate(155 -8.14)"/><rect class="cls-6" x="699.34" y="222.49" width="13.31" height="0.72"/><path class="cls-5" d="M557.65,231.36h0Z" transform="translate(155 -8.14)"/><rect class="cls-6" x="712.65" y="221.04" width="13.31" height="2.17"/><path class="cls-6" d="M571,231.36h0Z" transform="translate(155 -8.14)"/><path class="cls-5" d="M584.27,231.36h0Z" transform="translate(155 -8.14)"/><rect class="cls-6" x="739.27" y="221.04" width="13.31" height="2.17"/><path class="cls-5" d="M597.59,231.36h0Z" transform="translate(155 -8.14)"/><rect class="cls-6" x="752.59" y="219.6" width="13.31" height="3.61"/><rect class="cls-6" x="765.9" y="218.15" width="13.31" height="5.06"/><rect class="cls-6" x="779.21" y="222.49" width="13.31" height="0.72"/></g><g class="cls-11"><rect class="cls-3" x="170.23" y="367.66" width="122.48" height="63.61"/><line class="cls-4" x1="170.23" y1="428.38" x2="292.7" y2="428.38"/><line class="cls-4" x1="170.23" y1="413.92" x2="292.7" y2="413.92"/><line class="cls-4" x1="170.23" y1="399.47" x2="292.7" y2="399.47"/><line class="cls-4" x1="170.23" y1="385.01" x2="292.7" y2="385.01"/><line class="cls-4" x1="170.23" y1="370.55" x2="292.7" y2="370.55"/><rect class="cls-5" x="178.21" y="399.47" width="13.31" height="2.89"/><rect class="cls-5" x="191.53" y="399.46" width="13.31" height="11.57"/><rect class="cls-5" x="204.84" y="399.47" width="13.31" height="5.78"/><rect class="cls-5" x="218.15" y="399.47" width="13.31" height="5.06"/><rect class="cls-5" x="231.46" y="399.47" width="13.31" height="10.12"/><rect class="cls-5" x="244.78" y="399.46" width="13.31" height="6.51"/><rect class="cls-5" x="258.09" y="399.47" width="13.31" height="10.84"/><rect class="cls-5" x="271.4" y="399.47" width="13.31" height="20.24"/><rect class="cls-6" x="178.21" y="397.3" width="13.31" height="2.17"/><rect class="cls-6" x="191.53" y="385.01" width="13.31" height="14.46"/><rect class="cls-6" x="204.84" y="380.68" width="13.31" height="18.79"/><rect class="cls-6" x="218.15" y="387.9" width="13.31" height="11.57"/><rect class="cls-6" x="231.46" y="387.9" width="13.31" height="11.57"/><rect class="cls-6" x="244.78" y="382.84" width="13.31" height="16.63"/><rect class="cls-6" x="258.09" y="386.46" width="13.31" height="13.01"/><rect class="cls-6" x="271.4" y="383.57" width="13.31" height="15.9"/></g><g class="cls-12"><rect class="cls-3" x="425.01" y="367.66" width="122.48" height="63.61"/><line class="cls-4" x1="425.01" y1="428.37" x2="547.48" y2="428.37"/><line class="cls-4" x1="425.01" y1="413.92" x2="547.48" y2="413.92"/><line class="cls-4" x1="425.01" y1="399.46" x2="547.48" y2="399.46"/><line class="cls-4" x1="425.01" y1="385" x2="547.48" y2="385"/><line class="cls-4" x1="425.01" y1="370.55" x2="547.48" y2="370.55"/><rect class="cls-5" x="472.93" y="399.46" width="13.31" height="1.45"/><rect class="cls-5" x="486.24" y="399.46" width="13.31" height="1.45"/><rect class="cls-5" x="499.56" y="399.46" width="13.31" height="0.72"/><rect class="cls-5" x="512.87" y="399.46" width="13.31" height="0.72"/><rect class="cls-5" x="526.18" y="399.46" width="13.31" height="0.72"/><path class="cls-5" d="M278,407.6h0Z" transform="translate(155 -8.14)"/><path class="cls-6" d="M278,407.6h0Z" transform="translate(155 -8.14)"/><path class="cls-5" d="M291.31,407.6h0Z" transform="translate(155 -8.14)"/><rect class="cls-6" x="446.31" y="398.74" width="13.31" height="0.72"/><path class="cls-5" d="M304.62,407.6h0Z" transform="translate(155 -8.14)"/><rect class="cls-6" x="459.62" y="398.01" width="13.31" height="1.45"/><rect class="cls-6" x="472.93" y="398.01" width="13.31" height="1.45"/><rect class="cls-6" x="486.24" y="396.57" width="13.31" height="2.89"/><rect class="cls-6" x="499.56" y="395.85" width="13.31" height="3.61"/><rect class="cls-6" x="512.87" y="396.57" width="13.31" height="2.89"/><rect class="cls-6" x="526.18" y="398.01" width="13.31" height="1.45"/></g><g class="cls-13"><rect class="cls-3" x="551.68" y="103.82" width="122.48" height="63.61"/><line class="cls-4" x1="551.68" y1="164.54" x2="674.15" y2="164.54"/><line class="cls-4" x1="551.68" y1="150.08" x2="674.15" y2="150.08"/><line class="cls-4" x1="551.68" y1="135.63" x2="674.15" y2="135.63"/><line class="cls-4" x1="551.68" y1="121.17" x2="674.15" y2="121.17"/><line class="cls-4" x1="551.68" y1="106.71" x2="674.15" y2="106.71"/><rect class="cls-5" x="572.98" y="135.63" width="13.31" height="0.72"/><rect class="cls-5" x="586.29" y="135.62" width="13.31" height="1.45"/><rect class="cls-5" x="599.6" y="135.63" width="13.31" height="0.72"/><rect class="cls-5" x="612.91" y="135.63" width="13.31" height="0.72"/><rect class="cls-5" x="626.23" y="135.62" width="13.31" height="2.17"/><rect class="cls-5" x="639.54" y="135.63" width="13.31" height="0.72"/><path class="cls-5" d="M404.66,143.78h0Z" transform="translate(155 -8.14)"/><rect class="cls-6" x="559.66" y="134.91" width="13.31" height="0.72"/><rect class="cls-6" x="572.98" y="134.18" width="13.31" height="1.45"/><rect class="cls-6" x="586.29" y="134.91" width="13.31" height="0.72"/><rect class="cls-6" x="599.6" y="134.18" width="13.31" height="1.45"/><path class="cls-6" d="M457.91,143.78h0Z" transform="translate(155 -8.14)"/><rect class="cls-6" x="626.23" y="134.18" width="13.31" height="1.45"/><rect class="cls-6" x="639.54" y="133.46" width="13.31" height="2.17"/><path class="cls-5" d="M497.85,143.78h0Z" transform="translate(155 -8.14)"/><rect class="cls-6" x="652.85" y="133.46" width="13.31" height="2.17"/></g><g class="cls-14"><rect class="cls-3" x="551.68" y="191.41" width="122.48" height="63.61"/><line class="cls-4" x1="551.68" y1="252.12" x2="674.16" y2="252.12"/><line class="cls-4" x1="551.68" y1="237.67" x2="674.16" y2="237.67"/><line class="cls-4" x1="551.68" y1="223.21" x2="674.16" y2="223.21"/><line class="cls-4" x1="551.68" y1="208.75" x2="674.16" y2="208.75"/><line class="cls-4" x1="551.68" y1="194.3" x2="674.16" y2="194.3"/><rect class="cls-5" x="572.98" y="223.21" width="13.31" height="1.45"/><rect class="cls-5" x="586.29" y="223.21" width="13.31" height="0.72"/><rect class="cls-5" x="599.61" y="223.21" width="13.31" height="2.17"/><rect class="cls-5" x="612.92" y="223.21" width="13.31" height="0.72"/><rect class="cls-5" x="626.23" y="223.21" width="13.31" height="1.45"/><rect class="cls-5" x="639.55" y="223.21" width="13.31" height="3.61"/><rect class="cls-5" x="652.86" y="223.21" width="13.31" height="1.45"/><path class="cls-5" d="M404.67,231.36h0Z" transform="translate(155 -8.14)"/><path class="cls-6" d="M404.67,231.36h0Z" transform="translate(155 -8.14)"/><rect class="cls-6" x="572.98" y="221.04" width="13.31" height="2.17"/><rect class="cls-6" x="586.29" y="221.04" width="13.31" height="2.17"/><rect class="cls-6" x="599.61" y="220.32" width="13.31" height="2.89"/><path class="cls-6" d="M457.92,231.36h0Z" transform="translate(155 -8.14)"/><rect class="cls-6" x="626.23" y="218.87" width="13.31" height="4.34"/><rect class="cls-6" x="639.55" y="218.87" width="13.31" height="4.34"/><rect class="cls-6" x="652.86" y="221.76" width="13.31" height="1.45"/></g><g class="cls-15"><rect class="cls-3" x="297.67" y="278.81" width="122.48" height="63.61"/><line class="cls-4" x1="297.67" y1="339.53" x2="420.15" y2="339.53"/><line class="cls-4" x1="297.67" y1="325.07" x2="420.15" y2="325.07"/><line class="cls-4" x1="297.67" y1="310.62" x2="420.15" y2="310.62"/><line class="cls-4" x1="297.67" y1="296.16" x2="420.15" y2="296.16"/><line class="cls-4" x1="297.67" y1="281.7" x2="420.15" y2="281.7"/><rect class="cls-5" x="305.66" y="310.62" width="13.31" height="0.72"/><rect class="cls-5" x="318.97" y="310.61" width="13.31" height="19.52"/><rect class="cls-5" x="332.28" y="310.61" width="13.31" height="14.46"/><rect class="cls-5" x="345.6" y="310.62" width="13.31" height="10.84"/><rect class="cls-5" x="358.91" y="310.61" width="13.31" height="7.23"/><rect class="cls-5" x="372.22" y="310.61" width="13.31" height="11.57"/><rect class="cls-5" x="385.54" y="310.62" width="13.31" height="15.9"/><rect class="cls-5" x="398.85" y="310.61" width="13.31" height="17.35"/><rect class="cls-6" x="305.66" y="309.17" width="13.31" height="1.45"/><rect class="cls-6" x="318.97" y="286.04" width="13.31" height="24.58"/><rect class="cls-6" x="332.28" y="288.94" width="13.31" height="21.68"/><rect class="cls-6" x="345.6" y="296.16" width="13.31" height="14.46"/><rect class="cls-6" x="358.91" y="299.78" width="13.31" height="10.84"/><rect class="cls-6" x="372.22" y="292.55" width="13.31" height="18.07"/><rect class="cls-6" x="385.54" y="300.5" width="13.31" height="10.12"/><rect class="cls-6" x="398.85" y="296.16" width="13.31" height="14.46"/></g><g class="cls-16"><rect class="cls-3" x="425.01" y="278.81" width="122.48" height="63.61"/><line class="cls-4" x1="425.01" y1="339.52" x2="547.49" y2="339.52"/><line class="cls-4" x1="425.01" y1="325.07" x2="547.49" y2="325.07"/><line class="cls-4" x1="425.01" y1="310.61" x2="547.49" y2="310.61"/><line class="cls-4" x1="425.01" y1="296.15" x2="547.49" y2="296.15"/><line class="cls-4" x1="425.01" y1="281.7" x2="547.49" y2="281.7"/><rect class="cls-5" x="446.31" y="310.62" width="13.31" height="3.61"/><rect class="cls-5" x="459.62" y="310.61" width="13.31" height="2.89"/><rect class="cls-5" x="472.94" y="310.61" width="13.31" height="4.34"/><rect class="cls-5" x="499.56" y="310.61" width="13.31" height="0.72"/><rect class="cls-5" x="512.88" y="310.61" width="13.31" height="5.06"/><rect class="cls-5" x="526.19" y="310.62" width="13.31" height="3.61"/><path class="cls-5" d="M278,318.75h0Z" transform="translate(155 -8.14)"/><path class="cls-6" d="M278,318.75h0Z" transform="translate(155 -8.14)"/><rect class="cls-6" x="446.31" y="304.1" width="13.31" height="6.51"/><rect class="cls-6" x="459.62" y="302.66" width="13.31" height="7.95"/><rect class="cls-6" x="472.94" y="307" width="13.31" height="3.61"/><path class="cls-5" d="M331.25,318.75h0Z" transform="translate(155 -8.14)"/><rect class="cls-6" x="486.25" y="303.38" width="13.31" height="7.23"/><rect class="cls-6" x="499.56" y="302.66" width="13.31" height="7.95"/><rect class="cls-6" x="512.88" y="305.55" width="13.31" height="5.06"/><rect class="cls-6" x="526.19" y="301.94" width="13.31" height="8.67"/></g><g class="cls-17"><rect class="cls-3" x="297.67" y="367.66" width="122.48" height="63.61"/><line class="cls-4" x1="297.67" y1="428.38" x2="420.15" y2="428.38"/><line class="cls-4" x1="297.67" y1="413.92" x2="420.15" y2="413.92"/><line class="cls-4" x1="297.67" y1="399.47" x2="420.15" y2="399.47"/><line class="cls-4" x1="297.67" y1="385.01" x2="420.15" y2="385.01"/><line class="cls-4" x1="297.67" y1="370.55" x2="420.15" y2="370.55"/><rect class="cls-5" x="318.97" y="399.47" width="13.31" height="5.78"/><rect class="cls-5" x="332.28" y="399.47" width="13.31" height="2.89"/><rect class="cls-5" x="345.6" y="399.47" width="13.31" height="5.78"/><rect class="cls-5" x="358.91" y="399.47" width="13.31" height="2.89"/><rect class="cls-5" x="372.22" y="399.47" width="13.31" height="5.78"/><rect class="cls-5" x="385.54" y="399.47" width="13.31" height="7.95"/><rect class="cls-5" x="398.85" y="399.47" width="13.31" height="5.06"/><path class="cls-5" d="M150.66,407.61h0Z" transform="translate(155 -8.14)"/><path class="cls-6" d="M150.66,407.61h0Z" transform="translate(155 -8.14)"/><rect class="cls-6" x="318.97" y="392.24" width="13.31" height="7.23"/><rect class="cls-6" x="332.28" y="385.01" width="13.31" height="14.46"/><rect class="cls-6" x="345.6" y="389.35" width="13.31" height="10.12"/><rect class="cls-6" x="358.91" y="395.13" width="13.31" height="4.34"/><rect class="cls-6" x="372.22" y="383.57" width="13.31" height="15.9"/><rect class="cls-6" x="385.54" y="393.69" width="13.31" height="5.78"/><rect class="cls-6" x="398.85" y="392.96" width="13.31" height="6.51"/></g><g class="cls-18"><rect class="cls-3" x="297.67" y="455.46" width="122.48" height="63.61"/><line class="cls-4" x1="297.67" y1="516.17" x2="420.14" y2="516.17"/><line class="cls-4" x1="297.67" y1="501.72" x2="420.14" y2="501.72"/><line class="cls-4" x1="297.67" y1="487.26" x2="420.14" y2="487.26"/><line class="cls-4" x1="297.67" y1="472.8" x2="420.14" y2="472.8"/><line class="cls-4" x1="297.67" y1="458.35" x2="420.14" y2="458.35"/><rect class="cls-5" x="318.97" y="487.26" width="13.31" height="5.78"/><rect class="cls-5" x="332.28" y="487.26" width="13.31" height="1.45"/><rect class="cls-5" x="345.59" y="487.26" width="13.31" height="1.45"/><rect class="cls-5" x="358.91" y="487.26" width="13.31" height="2.17"/><rect class="cls-5" x="372.22" y="487.26" width="13.31" height="2.17"/><rect class="cls-5" x="385.53" y="487.26" width="13.31" height="2.17"/><rect class="cls-5" x="398.84" y="487.26" width="13.31" height="5.78"/><path class="cls-5" d="M150.66,495.41h0Z" transform="translate(155 -8.14)"/><rect class="cls-6" x="305.66" y="485.81" width="13.31" height="1.45"/><rect class="cls-6" x="318.97" y="480.03" width="13.31" height="7.23"/><rect class="cls-6" x="332.28" y="480.75" width="13.31" height="6.51"/><rect class="cls-6" x="345.59" y="483.65" width="13.31" height="3.61"/><rect class="cls-6" x="358.91" y="483.65" width="13.31" height="3.61"/><rect class="cls-6" x="372.22" y="482.2" width="13.31" height="5.06"/><rect class="cls-6" x="385.53" y="485.09" width="13.31" height="2.17"/><rect class="cls-6" x="398.84" y="482.2" width="13.31" height="5.06"/></g><g class="cls-19"><rect class="cls-3" x="170.23" y="18.14" width="122.48" height="63.61"/><line class="cls-4" x1="170.23" y1="78.86" x2="292.7" y2="78.86"/><line class="cls-4" x1="170.23" y1="64.4" x2="292.7" y2="64.4"/><line class="cls-4" x1="170.23" y1="49.95" x2="292.7" y2="49.95"/><line class="cls-4" x1="170.23" y1="35.49" x2="292.7" y2="35.49"/><line class="cls-4" x1="170.23" y1="21.03" x2="292.7" y2="21.03"/><rect class="cls-5" x="191.53" y="49.94" width="13.31" height="1.45"/><rect class="cls-5" x="204.84" y="49.95" width="13.31" height="0.72"/><rect class="cls-5" x="218.15" y="49.95" width="13.31" height="3.61"/><rect class="cls-5" x="231.47" y="49.95" width="13.31" height="0.72"/><rect class="cls-5" x="244.78" y="49.95" width="13.31" height="0.72"/><rect class="cls-5" x="258.09" y="49.94" width="13.31" height="1.45"/><rect class="cls-5" x="271.4" y="49.95" width="13.31" height="2.89"/><path class="cls-5" d="M23.22,58.09h0Z" transform="translate(155 -8.14)"/><path class="cls-6" d="M23.22,58.09h0Z" transform="translate(155 -8.14)"/><rect class="cls-6" x="191.53" y="44.89" width="13.31" height="5.06"/><rect class="cls-6" x="204.84" y="47.78" width="13.31" height="2.17"/><rect class="cls-6" x="218.15" y="47.06" width="13.31" height="2.89"/><rect class="cls-6" x="231.47" y="49.23" width="13.31" height="0.72"/><rect class="cls-6" x="244.78" y="47.78" width="13.31" height="2.17"/><rect class="cls-6" x="258.09" y="49.23" width="13.31" height="0.72"/><rect class="cls-6" x="271.4" y="46.34" width="13.31" height="3.61"/></g><g class="cls-20"><rect class="cls-3" x="170.23" y="455.46" width="122.48" height="63.61"/><line class="cls-4" x1="170.23" y1="516.17" x2="292.7" y2="516.17"/><line class="cls-4" x1="170.23" y1="501.72" x2="292.7" y2="501.72"/><line class="cls-4" x1="170.23" y1="487.26" x2="292.7" y2="487.26"/><line class="cls-4" x1="170.23" y1="472.8" x2="292.7" y2="472.8"/><line class="cls-4" x1="170.23" y1="458.35" x2="292.7" y2="458.35"/><rect class="cls-5" x="258.09" y="487.26" width="13.31" height="0.72"/><rect class="cls-5" x="271.4" y="487.27" width="13.31" height="3.61"/><path class="cls-5" d="M23.22,495.41h0Z" transform="translate(155 -8.14)"/><path class="cls-6" d="M23.22,495.41h0Z" transform="translate(155 -8.14)"/><path class="cls-5" d="M36.53,495.41h0Z" transform="translate(155 -8.14)"/><rect class="cls-6" x="191.53" y="486.54" width="13.31" height="0.72"/><path class="cls-5" d="M49.84,495.41h0Z" transform="translate(155 -8.14)"/><rect class="cls-6" x="204.84" y="485.81" width="13.31" height="1.45"/><path class="cls-5" d="M63.15,495.41h0Z" transform="translate(155 -8.14)"/><path class="cls-6" d="M63.15,495.41h0Z" transform="translate(155 -8.14)"/><path class="cls-5" d="M76.47,495.41h0Z" transform="translate(155 -8.14)"/><rect class="cls-6" x="231.47" y="485.09" width="13.31" height="2.17"/><path class="cls-5" d="M89.78,495.41h0Z" transform="translate(155 -8.14)"/><rect class="cls-6" x="244.78" y="480.75" width="13.31" height="6.51"/><rect class="cls-6" x="258.09" y="481.48" width="13.31" height="5.78"/><rect class="cls-6" x="271.4" y="485.09" width="13.31" height="2.17"/></g><g class="cls-21"><rect class="cls-3" x="170.23" y="278.81" width="122.48" height="63.61"/><line class="cls-4" x1="170.23" y1="339.53" x2="292.7" y2="339.53"/><line class="cls-4" x1="170.23" y1="325.07" x2="292.7" y2="325.07"/><line class="cls-4" x1="170.23" y1="310.62" x2="292.7" y2="310.62"/><line class="cls-4" x1="170.23" y1="296.16" x2="292.7" y2="296.16"/><line class="cls-4" x1="170.23" y1="281.7" x2="292.7" y2="281.7"/><rect class="cls-5" x="191.53" y="310.62" width="13.31" height="2.89"/><rect class="cls-5" x="204.84" y="310.61" width="13.31" height="1.45"/><rect class="cls-5" x="218.15" y="310.62" width="13.31" height="0.72"/><rect class="cls-5" x="231.47" y="310.61" width="13.31" height="2.17"/><rect class="cls-5" x="244.78" y="310.62" width="13.31" height="2.89"/><rect class="cls-5" x="258.09" y="310.61" width="13.31" height="2.17"/><rect class="cls-5" x="271.4" y="310.61" width="13.31" height="1.45"/><path class="cls-5" d="M23.22,318.76h0Z" transform="translate(155 -8.14)"/><path class="cls-6" d="M23.22,318.76h0Z" transform="translate(155 -8.14)"/><rect class="cls-6" x="191.53" y="309.17" width="13.31" height="1.45"/><rect class="cls-6" x="204.84" y="306.28" width="13.31" height="4.34"/><rect class="cls-6" x="218.15" y="308.45" width="13.31" height="2.17"/><rect class="cls-6" x="231.47" y="307.73" width="13.31" height="2.89"/><rect class="cls-6" x="244.78" y="306.28" width="13.31" height="4.34"/><rect class="cls-6" x="258.09" y="309.17" width="13.31" height="1.45"/><rect class="cls-6" x="271.4" y="309.17" width="13.31" height="1.45"/></g><g class="cls-22"><rect class="cls-3" x="297.67" y="103.82" width="122.48" height="63.61"/><line class="cls-4" x1="297.67" y1="164.53" x2="420.15" y2="164.53"/><line class="cls-4" x1="297.67" y1="150.08" x2="420.15" y2="150.08"/><line class="cls-4" x1="297.67" y1="135.62" x2="420.15" y2="135.62"/><line class="cls-4" x1="297.67" y1="121.16" x2="420.15" y2="121.16"/><line class="cls-4" x1="297.67" y1="106.71" x2="420.15" y2="106.71"/><rect class="cls-5" x="318.97" y="135.62" width="13.31" height="4.34"/><rect class="cls-5" x="332.29" y="135.62" width="13.31" height="2.89"/><rect class="cls-5" x="345.6" y="135.62" width="13.31" height="2.89"/><rect class="cls-5" x="372.22" y="135.62" width="13.31" height="0.72"/><rect class="cls-5" x="385.54" y="135.62" width="13.31" height="3.61"/><rect class="cls-5" x="398.85" y="135.62" width="13.31" height="1.45"/><path class="cls-5" d="M150.66,143.76h0Z" transform="translate(155 -8.14)"/><path class="cls-6" d="M150.66,143.76h0Z" transform="translate(155 -8.14)"/><rect class="cls-6" x="318.97" y="133.45" width="13.31" height="2.17"/><rect class="cls-6" x="332.29" y="129.84" width="13.31" height="5.78"/><rect class="cls-6" x="345.6" y="132.01" width="13.31" height="3.61"/><path class="cls-5" d="M203.91,143.76h0Z" transform="translate(155 -8.14)"/><rect class="cls-6" x="358.91" y="134.9" width="13.31" height="0.72"/><path class="cls-6" d="M217.22,143.76h0Z" transform="translate(155 -8.14)"/><rect class="cls-6" x="385.54" y="132.73" width="13.31" height="2.89"/><rect class="cls-6" x="398.85" y="134.9" width="13.31" height="0.72"/></g><g class="cls-23"><rect class="cls-3" x="170.23" y="191.41" width="122.48" height="63.61"/><line class="cls-4" x1="170.23" y1="252.13" x2="292.71" y2="252.13"/><line class="cls-4" x1="170.23" y1="237.67" x2="292.71" y2="237.67"/><line class="cls-4" x1="170.23" y1="223.22" x2="292.71" y2="223.22"/><line class="cls-4" x1="170.23" y1="208.76" x2="292.71" y2="208.76"/><line class="cls-4" x1="170.23" y1="194.3" x2="292.71" y2="194.3"/><rect class="cls-5" x="191.53" y="223.22" width="13.31" height="5.06"/><rect class="cls-5" x="204.85" y="223.21" width="13.31" height="7.23"/><rect class="cls-5" x="218.16" y="223.22" width="13.31" height="0.72"/><rect class="cls-5" x="231.47" y="223.21" width="13.31" height="4.34"/><rect class="cls-5" x="244.78" y="223.22" width="13.31" height="5.78"/><rect class="cls-5" x="258.1" y="223.21" width="13.31" height="7.23"/><rect class="cls-5" x="271.41" y="223.21" width="13.31" height="9.4"/><path class="cls-5" d="M23.22,231.37h0Z" transform="translate(155 -8.14)"/><path class="cls-6" d="M23.22,231.37h0Z" transform="translate(155 -8.14)"/><rect class="cls-6" x="191.53" y="216.71" width="13.31" height="6.51"/><rect class="cls-6" x="204.85" y="213.82" width="13.31" height="9.4"/><rect class="cls-6" x="218.16" y="217.44" width="13.31" height="5.78"/><rect class="cls-6" x="231.47" y="221.77" width="13.31" height="1.45"/><rect class="cls-6" x="244.78" y="213.82" width="13.31" height="9.4"/><rect class="cls-6" x="258.1" y="215.99" width="13.31" height="7.23"/><rect class="cls-6" x="271.41" y="215.99" width="13.31" height="7.23"/></g><g class="cls-24"><rect class="cls-3" x="425.01" y="103.82" width="122.48" height="63.61"/><line class="cls-4" x1="425.01" y1="164.53" x2="547.49" y2="164.53"/><line class="cls-4" x1="425.01" y1="150.08" x2="547.49" y2="150.08"/><line class="cls-4" x1="425.01" y1="135.62" x2="547.49" y2="135.62"/><line class="cls-4" x1="425.01" y1="121.16" x2="547.49" y2="121.16"/><line class="cls-4" x1="425.01" y1="106.71" x2="547.49" y2="106.71"/><rect class="cls-5" x="446.31" y="135.62" width="13.31" height="2.17"/><rect class="cls-5" x="459.63" y="135.62" width="13.31" height="0.72"/><rect class="cls-5" x="472.94" y="135.62" width="13.31" height="2.17"/><rect class="cls-5" x="486.25" y="135.62" width="13.31" height="2.17"/><rect class="cls-5" x="499.56" y="135.62" width="13.31" height="2.89"/><rect class="cls-5" x="512.88" y="135.62" width="13.31" height="2.17"/><rect class="cls-5" x="526.19" y="135.62" width="13.31" height="5.06"/><path class="cls-5" d="M278,143.77h0Z" transform="translate(155 -8.14)"/><rect class="cls-6" x="433" y="134.9" width="13.31" height="0.72"/><rect class="cls-6" x="446.31" y="131.28" width="13.31" height="4.34"/><rect class="cls-6" x="459.63" y="133.45" width="13.31" height="2.17"/><rect class="cls-6" x="472.94" y="132.73" width="13.31" height="2.89"/><rect class="cls-6" x="486.25" y="134.9" width="13.31" height="0.72"/><rect class="cls-6" x="499.56" y="128.39" width="13.31" height="7.23"/><rect class="cls-6" x="512.88" y="132.01" width="13.31" height="3.61"/><rect class="cls-6" x="526.19" y="129.11" width="13.31" height="6.51"/></g><g class="cls-25"><rect class="cls-26" x="551.68" y="260.02" width="122.48" height="18.86"/><rect class="cls-27" x="551.68" y="260.02" width="122.48" height="18.86"/><text class="cls-28" transform="translate(599.27 273.4)">Sh<tspan class="cls-29" x="13.45" y="0">a</tspan><tspan x="19.35" y="0">w</tspan></text></g><g class="cls-30"><rect class="cls-26" x="551.68" y="84.96" width="122.48" height="18.86"/><rect class="cls-27" x="551.68" y="84.96" width="122.48" height="18.86"/><text class="cls-28" transform="translate(563.22 98.34)"><tspan class="cls-31">T</tspan><tspan x="5.41" y="0">a</tspan><tspan class="cls-32" x="11.53" y="0">k</tspan><tspan x="16.82" y="0">oma, B</tspan><tspan class="cls-33" x="51.67" y="0">r</tspan><tspan x="55.48" y="0">ight</tspan><tspan class="cls-34" x="73.22" y="0">w</tspan><tspan x="81.05" y="0">ood</tspan></text></g><g class="cls-35"><rect class="cls-26" x="297.67" y="348.8" width="122.48" height="18.86"/><rect class="cls-27" x="297.67" y="348.8" width="122.48" height="18.86"/><text class="cls-28" transform="translate(305.61 362.18)">Capitol Hill (NE), H St.</text></g><g class="cls-36"><rect class="cls-26" x="170.23" y="260.02" width="122.48" height="18.86"/><rect class="cls-27" x="170.23" y="260.02" width="122.48" height="18.86"/><text class="cls-28" transform="translate(207.79 273.4)"><tspan class="cls-37">W</tspan><tspan x="10.06" y="0">est End</tspan></text></g><g class="cls-38"><rect class="cls-26" x="170.23" y="84.96" width="122.48" height="18.86"/><rect class="cls-27" x="170.23" y="84.96" width="122.48" height="18.86"/><text class="cls-28" transform="translate(202.79 98.34)">Gl<tspan class="cls-39" x="11" y="0">o</tspan><tspan class="cls-40" x="16.95" y="0">v</tspan><tspan x="22.19" y="0">er </tspan><tspan class="cls-41" x="35.03" y="0">P</tspan><tspan x="41.93" y="0">a</tspan><tspan class="cls-42" x="48.05" y="0">r</tspan><tspan x="51.87" y="0">k</tspan></text></g><g class="cls-43"><rect class="cls-26" x="425.01" y="348.8" width="122.48" height="18.86"/><rect class="cls-27" x="425.01" y="348.8" width="122.48" height="18.86"/><text class="cls-28" transform="translate(468.21 362.18)">Ivy City</text></g><g class="cls-44"><rect class="cls-26" x="425.01" y="260.02" width="122.48" height="18.86"/><rect class="cls-27" x="425.01" y="260.02" width="122.48" height="18.86"/><text class="cls-28" transform="translate(455.38 273.4)">Logan Circle</text></g><g class="cls-45"><rect class="cls-26" x="170.23" y="436.6" width="122.48" height="18.86"/><rect class="cls-27" x="170.23" y="436.6" width="122.48" height="18.86"/><text class="cls-28" transform="translate(206.67 449.98)">N<tspan class="cls-46" x="7.94" y="0">a</tspan><tspan x="13.84" y="0">vy </tspan><tspan class="cls-47" x="27.9" y="0">Y</tspan><tspan x="33.69" y="0">ard</tspan></text></g><g class="cls-48"><rect class="cls-26" x="425.01" y="84.96" width="122.48" height="18.86"/><rect class="cls-27" x="425.01" y="84.96" width="122.48" height="18.86"/><text class="cls-28" transform="translate(464.66 98.34)"><tspan class="cls-49">P</tspan><tspan class="cls-50" x="6.8" y="0">et</tspan><tspan class="cls-51" x="15.97" y="0">w</tspan><tspan x="23.81" y="0">o</tspan><tspan class="cls-52" x="29.92" y="0">r</tspan><tspan x="34.02" y="0">th</tspan></text></g><g class="cls-53"><rect class="cls-26" x="425.01" y="172.55" width="122.48" height="18.86"/><rect class="cls-27" x="425.01" y="172.55" width="122.48" height="18.86"/><text class="cls-28" transform="translate(442.85 185.93)">Columbia Heights</text></g><g class="cls-54"><rect class="cls-26" x="170.23" y="348.8" width="122.48" height="18.86"/><rect class="cls-27" x="170.23" y="348.8" width="122.48" height="18.86"/><text class="cls-28" transform="translate(177 362.17)">D<tspan class="cls-39" x="7.94" y="0">o</tspan><tspan x="13.9" y="0">wnt</tspan><tspan class="cls-39" x="31.01" y="0">o</tspan><tspan x="36.97" y="0">wn, Chinat</tspan><tspan class="cls-39" x="88.94" y="0">o</tspan><tspan x="94.89" y="0">wn</tspan></text></g><g class="cls-55"><rect class="cls-26" x="297.67" y="260.02" width="122.48" height="18.86"/><rect class="cls-27" x="297.67" y="260.02" width="122.48" height="18.86"/><text class="cls-28" transform="translate(310.7 273.4)">Dupont Circl<tspan class="cls-56" x="60.52" y="0">e</tspan><tspan class="cls-57" x="66.47" y="0">, K St.</tspan></text></g><g class="cls-58"><rect class="cls-26" x="170.23" y="0.54" width="122.48" height="18.86"/><rect class="cls-27" x="170.23" y="0.54" width="122.48" height="18.86"/><text class="cls-28" transform="translate(185.54 13.91)">F<tspan class="cls-33" x="6.72" y="0">r</tspan><tspan x="10.54" y="0">iendship Heights</tspan></text></g><g class="cls-59"><rect class="cls-26" x="170.23" y="172.55" width="122.48" height="18.86"/><rect class="cls-27" x="170.23" y="172.55" width="122.48" height="18.86"/><text class="cls-28" transform="translate(201.6 185.93)">Georget<tspan class="cls-56" x="39.75" y="0">o</tspan><tspan x="45.7" y="0">wn</tspan></text></g><g class="cls-60"><rect class="cls-26" x="297.67" y="172.55" width="122.48" height="18.86"/><rect class="cls-27" x="297.67" y="172.55" width="122.48" height="18.86"/><text class="cls-28" transform="translate(321.62 185.93)">Adams Morgan</text></g><g class="cls-61"><rect class="cls-26" x="678.04" y="172.55" width="122.48" height="18.86"/><rect class="cls-27" x="678.04" y="172.55" width="122.48" height="18.86"/><text class="cls-28" transform="translate(705.95 185.93)">Bloomingdale</text></g><g class="cls-62"><rect class="cls-26" x="551.68" y="172.55" width="122.48" height="18.86"/><rect class="cls-27" x="551.68" y="172.55" width="122.48" height="18.86"/><text class="cls-28" transform="translate(588.16 185.93)">Brookland</text></g><g class="cls-63"><rect class="cls-26" x="297.67" y="436.6" width="122.48" height="18.86"/><rect class="cls-27" x="297.67" y="436.6" width="122.48" height="18.86"/><text class="cls-28" transform="translate(320.1 449.98)">Capitol Hill (SE)</text></g><g class="cls-64"><rect class="cls-26" x="297.67" y="84.96" width="122.48" height="18.86"/><rect class="cls-27" x="297.67" y="84.96" width="122.48" height="18.86"/><text class="cls-28" transform="translate(299.41 98.34)">Cl<tspan class="cls-65" x="10.39" y="0">e</tspan><tspan class="cls-66" x="16.18" y="0">v</tspan><tspan x="21.4" y="0">eland/</tspan><tspan class="cls-37" x="51.37" y="0">W</tspan><tspan x="61.43" y="0">oodl</tspan><tspan class="cls-46" x="82.23" y="0">e</tspan><tspan x="88.13" y="0">y </tspan><tspan class="cls-67" x="96.69" y="0">P</tspan><tspan class="cls-57" x="103.58" y="0">a</tspan><tspan class="cls-33" x="109.7" y="0">r</tspan><tspan x="113.52" y="0">k</tspan></text></g><text class="cls-68" transform="matrix(1, -0.01, 0.01, 1, 297.67, 31.33)">New <tspan x="0" y="12">liquor licenses</tspan></text><text class="cls-69" transform="matrix(1, -0.01, 0.01, 1, 297.67, 63.58)">Closed <tspan x="0" y="12">liquor licenses</tspan></text><text class="cls-70" transform="translate(174.73 147.62)">‘08-<tspan x="0" y="10.8">’09</tspan></text><text class="cls-70" transform="translate(271.89 147.62) scale(0.99 1)">‘15-<tspan x="0" y="10.8">’16</tspan></text><text class="cls-71" transform="translate(425.11 515.1)">Source: DataLensDC, DC<tspan class="cls-72" x="114.49" y="0"> </tspan><tspan x="116.72" y="0">ABR</tspan><tspan class="cls-72" x="137.29" y="0">A</tspan></text><image width="300" height="150" transform="translate(725.52 479.6) scale(0.25)" xlink:href="../../DataLensDCsite/iframes/dcpc/dcpcSm.png"/><text x="155" y="-8.14"></text><text class="cls-73" transform="translate(159 37.45)">20</text><text class="cls-73" transform="translate(156 64.58)"><tspan xml:space="preserve"> 20</tspan></text></svg>