<svg id="Layer_1" data-name="Layer 1" xmlns="http://www.w3.org/2000/svg" xmlns:xlink="http://www.w3.org/1999/xlink" viewBox="0 0 649.14 337.85"><defs><style>.cls-1,.cls-11,.cls-4,.cls-5,.cls-6,.cls-7,.cls-9{fill:none;}.cls-2{clip-path:url(#clip-path);}.cls-3{fill:#f2f2f2;}.cls-4,.cls-5{stroke:#ebebeb;}.cls-11,.cls-4,.cls-5,.cls-6,.cls-7,.cls-9{stroke-linejoin:round;}.cls-4{stroke-width:0.53px;}.cls-5{stroke-width:1.07px;}.cls-6,.cls-9{stroke:#4dffcc;}.cls-6,.cls-7{stroke-width:2.13px;}.cls-11,.cls-7{stroke:#00b380;}.cls-8{fill:#4dffcc;}.cls-11,.cls-9{stroke-linecap:round;stroke-width:0.71px;}.cls-10{fill:#00b380;}.cls-12{font-size:9px;}.cls-12,.cls-13{fill:#4d4d4d;font-family:Helvetica, Helvetica;}.cls-13{font-size:11px;}.cls-14{letter-spacing:-0.01em;}.cls-15{fill:#fff;}.cls-16{letter-spacing:0.01em;}.cls-17{letter-spacing:-0.03em;}.cls-18{letter-spacing:0em;}.cls-19{letter-spacing:-0.01em;}.cls-20{letter-spacing:0em;}.cls-21{letter-spacing:0.01em;}.cls-22{letter-spacing:-0.05em;}.cls-23{letter-spacing:0em;}.cls-24{letter-spacing:-0.05em;}</style><clipPath id="clip-path" transform="translate(-2.86)"><rect class="cls-1" x="33.98" y="20.29" width="608.54" height="284.31"/></clipPath></defs><title>moratorium</title><g class="cls-2"><rect class="cls-3" x="31.12" y="20.29" width="608.54" height="284.31"/><line class="cls-4" x1="127.93" y1="304.6" x2="127.93" y2="20.29"/><line class="cls-4" x1="266.24" y1="304.6" x2="266.24" y2="20.29"/><line class="cls-4" x1="404.54" y1="304.6" x2="404.54" y2="20.29"/><line class="cls-4" x1="542.85" y1="304.6" x2="542.85" y2="20.29"/><line class="cls-5" x1="31.12" y1="302.01" x2="639.66" y2="302.01"/><line class="cls-5" x1="31.12" y1="250.32" x2="639.66" y2="250.32"/><line class="cls-5" x1="31.12" y1="198.63" x2="639.66" y2="198.63"/><line class="cls-5" x1="31.12" y1="146.94" x2="639.66" y2="146.94"/><line class="cls-5" x1="31.12" y1="95.24" x2="639.66" y2="95.24"/><line class="cls-5" x1="31.12" y1="43.55" x2="639.66" y2="43.55"/><line class="cls-5" x1="58.78" y1="304.6" x2="58.78" y2="20.29"/><line class="cls-5" x1="197.08" y1="304.6" x2="197.08" y2="20.29"/><line class="cls-5" x1="335.39" y1="304.6" x2="335.39" y2="20.29"/><line class="cls-5" x1="473.69" y1="304.6" x2="473.69" y2="20.29"/><line class="cls-5" x1="612" y1="304.6" x2="612" y2="20.29"/><line class="cls-6" x1="58.78" y1="84.9" x2="127.93" y2="84.9"/><line class="cls-6" x1="127.93" y1="84.9" x2="197.08" y2="95.24"/><line class="cls-6" x1="197.08" y1="95.24" x2="266.24" y2="95.24"/><line class="cls-6" x1="266.24" y1="95.24" x2="335.39" y2="33.21"/><line class="cls-6" x1="335.39" y1="33.21" x2="404.54" y2="53.89"/><line class="cls-6" x1="404.54" y1="53.89" x2="473.69" y2="53.89"/><line class="cls-7" x1="473.69" y1="53.89" x2="542.85" y2="64.23"/><line class="cls-7" x1="542.85" y1="64.23" x2="612" y2="74.56"/><line class="cls-6" x1="58.78" y1="291.68" x2="127.93" y2="291.68"/><line class="cls-6" x1="127.93" y1="291.68" x2="197.08" y2="291.68"/><line class="cls-6" x1="197.08" y1="291.68" x2="266.24" y2="291.68"/><line class="cls-6" x1="266.24" y1="291.68" x2="335.39" y2="260.66"/><line class="cls-6" x1="335.39" y1="260.66" x2="404.54" y2="271"/><line class="cls-7" x1="404.54" y1="271" x2="473.69" y2="260.66"/><line class="cls-7" x1="473.69" y1="260.66" x2="542.85" y2="291.68"/><line class="cls-7" x1="542.85" y1="291.68" x2="612" y2="250.32"/><line class="cls-6" x1="58.78" y1="291.68" x2="127.93" y2="281.34"/><line class="cls-6" x1="127.93" y1="281.34" x2="197.08" y2="260.66"/><line class="cls-7" x1="197.08" y1="260.66" x2="266.24" y2="229.64"/><line class="cls-7" x1="266.24" y1="229.64" x2="335.39" y2="219.31"/><line class="cls-7" x1="335.39" y1="219.31" x2="404.54" y2="188.29"/><line class="cls-7" x1="404.54" y1="188.29" x2="473.69" y2="208.97"/><line class="cls-7" x1="473.69" y1="208.97" x2="542.85" y2="229.64"/><line class="cls-7" x1="542.85" y1="229.64" x2="612" y2="229.64"/><path class="cls-8" d="M58.08,84.9a3.56,3.56,0,1,1,3.56,3.56,3.57,3.57,0,0,1-3.56-3.56" transform="translate(-2.86)"/><path class="cls-9" d="M58.08,84.9a3.56,3.56,0,1,1,3.56,3.56,3.57,3.57,0,0,1-3.56-3.56" transform="translate(-2.86)"/><path class="cls-8" d="M58.08,291.68a3.56,3.56,0,1,1,3.56,3.55,3.57,3.57,0,0,1-3.56-3.55" transform="translate(-2.86)"/><path class="cls-9" d="M58.08,291.68a3.56,3.56,0,1,1,3.56,3.55,3.57,3.57,0,0,1-3.56-3.55" transform="translate(-2.86)"/><path class="cls-8" d="M58.08,291.68a3.56,3.56,0,1,1,3.56,3.55,3.57,3.57,0,0,1-3.56-3.55" transform="translate(-2.86)"/><path class="cls-9" d="M58.08,291.68a3.56,3.56,0,1,1,3.56,3.55,3.57,3.57,0,0,1-3.56-3.55" transform="translate(-2.86)"/><path class="cls-8" d="M127.23,84.9a3.56,3.56,0,1,1,3.56,3.56,3.57,3.57,0,0,1-3.56-3.56" transform="translate(-2.86)"/><path class="cls-9" d="M127.23,84.9a3.56,3.56,0,1,1,3.56,3.56,3.57,3.57,0,0,1-3.56-3.56" transform="translate(-2.86)"/><path class="cls-8" d="M127.23,291.68a3.56,3.56,0,1,1,3.56,3.55,3.57,3.57,0,0,1-3.56-3.55" transform="translate(-2.86)"/><path class="cls-9" d="M127.23,291.68a3.56,3.56,0,1,1,3.56,3.55,3.57,3.57,0,0,1-3.56-3.55" transform="translate(-2.86)"/><path class="cls-8" d="M127.23,281.34a3.56,3.56,0,1,1,3.56,3.55,3.57,3.57,0,0,1-3.56-3.55" transform="translate(-2.86)"/><path class="cls-9" d="M127.23,281.34a3.56,3.56,0,1,1,3.56,3.55,3.57,3.57,0,0,1-3.56-3.55" transform="translate(-2.86)"/><path class="cls-8" d="M196.39,95.24a3.56,3.56,0,1,1,3.55,3.56,3.56,3.56,0,0,1-3.55-3.56" transform="translate(-2.86)"/><path class="cls-9" d="M196.39,95.24a3.56,3.56,0,1,1,3.55,3.56,3.56,3.56,0,0,1-3.55-3.56" transform="translate(-2.86)"/><path class="cls-8" d="M196.39,291.68a3.56,3.56,0,1,1,3.55,3.55,3.57,3.57,0,0,1-3.55-3.55" transform="translate(-2.86)"/><path class="cls-9" d="M196.39,291.68a3.56,3.56,0,1,1,3.55,3.55,3.57,3.57,0,0,1-3.55-3.55" transform="translate(-2.86)"/><path class="cls-8" d="M196.39,260.66a3.56,3.56,0,1,1,3.55,3.56,3.56,3.56,0,0,1-3.55-3.56" transform="translate(-2.86)"/><path class="cls-9" d="M196.39,260.66a3.56,3.56,0,1,1,3.55,3.56,3.56,3.56,0,0,1-3.55-3.56" transform="translate(-2.86)"/><path class="cls-8" d="M265.54,95.24a3.55,3.55,0,1,1,3.56,3.56,3.57,3.57,0,0,1-3.56-3.56" transform="translate(-2.86)"/><path class="cls-9" d="M265.54,95.24a3.55,3.55,0,1,1,3.56,3.56,3.57,3.57,0,0,1-3.56-3.56" transform="translate(-2.86)"/><path class="cls-8" d="M265.54,291.68a3.55,3.55,0,1,1,3.56,3.55,3.57,3.57,0,0,1-3.56-3.55" transform="translate(-2.86)"/><path class="cls-9" d="M265.54,291.68a3.55,3.55,0,1,1,3.56,3.55,3.57,3.57,0,0,1-3.56-3.55" transform="translate(-2.86)"/><path class="cls-10" d="M265.54,229.64a3.55,3.55,0,1,1,3.56,3.56,3.57,3.57,0,0,1-3.56-3.56" transform="translate(-2.86)"/><path class="cls-11" d="M265.54,229.64a3.55,3.55,0,1,1,3.56,3.56,3.57,3.57,0,0,1-3.56-3.56" transform="translate(-2.86)"/><path class="cls-8" d="M334.69,33.21a3.55,3.55,0,1,1,3.56,3.56,3.57,3.57,0,0,1-3.56-3.56" transform="translate(-2.86)"/><path class="cls-9" d="M334.69,33.21a3.55,3.55,0,1,1,3.56,3.56,3.57,3.57,0,0,1-3.56-3.56" transform="translate(-2.86)"/><path class="cls-8" d="M334.69,260.66a3.55,3.55,0,1,1,3.56,3.56,3.56,3.56,0,0,1-3.56-3.56" transform="translate(-2.86)"/><path class="cls-9" d="M334.69,260.66a3.55,3.55,0,1,1,3.56,3.56,3.56,3.56,0,0,1-3.56-3.56" transform="translate(-2.86)"/><path class="cls-10" d="M334.69,219.31a3.55,3.55,0,1,1,3.56,3.55,3.57,3.57,0,0,1-3.56-3.55" transform="translate(-2.86)"/><path class="cls-11" d="M334.69,219.31a3.55,3.55,0,1,1,3.56,3.55,3.57,3.57,0,0,1-3.56-3.55" transform="translate(-2.86)"/><path class="cls-8" d="M403.85,53.89a3.55,3.55,0,1,1,3.55,3.55,3.57,3.57,0,0,1-3.55-3.55" transform="translate(-2.86)"/><path class="cls-9" d="M403.85,53.89a3.55,3.55,0,1,1,3.55,3.55,3.57,3.57,0,0,1-3.55-3.55" transform="translate(-2.86)"/><path class="cls-8" d="M403.85,271a3.55,3.55,0,1,1,3.55,3.55,3.57,3.57,0,0,1-3.55-3.55" transform="translate(-2.86)"/><path class="cls-9" d="M403.85,271a3.55,3.55,0,1,1,3.55,3.55,3.57,3.57,0,0,1-3.55-3.55" transform="translate(-2.86)"/><path class="cls-10" d="M403.85,188.29a3.55,3.55,0,1,1,3.55,3.56,3.57,3.57,0,0,1-3.55-3.56" transform="translate(-2.86)"/><path class="cls-11" d="M403.85,188.29a3.55,3.55,0,1,1,3.55,3.56,3.57,3.57,0,0,1-3.55-3.56" transform="translate(-2.86)"/><path class="cls-8" d="M473,53.89a3.55,3.55,0,1,1,3.55,3.55A3.57,3.57,0,0,1,473,53.89" transform="translate(-2.86)"/><path class="cls-9" d="M473,53.89a3.55,3.55,0,1,1,3.55,3.55A3.57,3.57,0,0,1,473,53.89" transform="translate(-2.86)"/><path class="cls-10" d="M473,260.66a3.55,3.55,0,1,1,3.55,3.56,3.56,3.56,0,0,1-3.55-3.56" transform="translate(-2.86)"/><path class="cls-11" d="M473,260.66a3.55,3.55,0,1,1,3.55,3.56,3.56,3.56,0,0,1-3.55-3.56" transform="translate(-2.86)"/><path class="cls-10" d="M473,209a3.55,3.55,0,1,1,3.55,3.55A3.57,3.57,0,0,1,473,209" transform="translate(-2.86)"/><path class="cls-11" d="M473,209a3.55,3.55,0,1,1,3.55,3.55A3.57,3.57,0,0,1,473,209" transform="translate(-2.86)"/><path class="cls-10" d="M542.15,64.23a3.55,3.55,0,1,1,3.56,3.55,3.57,3.57,0,0,1-3.56-3.55" transform="translate(-2.86)"/><path class="cls-11" d="M542.15,64.23a3.55,3.55,0,1,1,3.56,3.55,3.57,3.57,0,0,1-3.56-3.55" transform="translate(-2.86)"/><path class="cls-10" d="M542.15,291.68a3.55,3.55,0,1,1,3.56,3.55,3.57,3.57,0,0,1-3.56-3.55" transform="translate(-2.86)"/><path class="cls-11" d="M542.15,291.68a3.55,3.55,0,1,1,3.56,3.55,3.57,3.57,0,0,1-3.56-3.55" transform="translate(-2.86)"/><path class="cls-10" d="M542.15,229.64a3.55,3.55,0,1,1,3.56,3.56,3.57,3.57,0,0,1-3.56-3.56" transform="translate(-2.86)"/><path class="cls-11" d="M542.15,229.64a3.55,3.55,0,1,1,3.56,3.56,3.57,3.57,0,0,1-3.56-3.56" transform="translate(-2.86)"/><path class="cls-10" d="M611.3,74.56a3.55,3.55,0,1,1,3.56,3.56,3.57,3.57,0,0,1-3.56-3.56" transform="translate(-2.86)"/><path class="cls-11" d="M611.3,74.56a3.55,3.55,0,1,1,3.56,3.56,3.57,3.57,0,0,1-3.56-3.56" transform="translate(-2.86)"/><path class="cls-10" d="M611.3,250.32a3.55,3.55,0,1,1,3.56,3.56,3.57,3.57,0,0,1-3.56-3.56" transform="translate(-2.86)"/><path class="cls-11" d="M611.3,250.32a3.55,3.55,0,1,1,3.56,3.56,3.57,3.57,0,0,1-3.56-3.56" transform="translate(-2.86)"/><path class="cls-10" d="M611.3,229.64a3.55,3.55,0,1,1,3.56,3.56,3.57,3.57,0,0,1-3.56-3.56" transform="translate(-2.86)"/><path class="cls-11" d="M611.3,229.64a3.55,3.55,0,1,1,3.56,3.56,3.57,3.57,0,0,1-3.56-3.56" transform="translate(-2.86)"/></g><text class="cls-12" transform="translate(16.18 305.25)">15</text><text class="cls-12" transform="translate(16.18 253.55)">20</text><text class="cls-12" transform="translate(16.18 201.86)">25</text><text class="cls-12" transform="translate(16.18 150.17)">30</text><text class="cls-12" transform="translate(16.18 98.47)">35</text><text class="cls-12" transform="translate(16.18 46.78)">40</text><text class="cls-12" transform="translate(48.77 315.99)">2008</text><text class="cls-12" transform="translate(187.07 315.99)">2010</text><text class="cls-12" transform="translate(325.38 315.99)">2012</text><text class="cls-12" transform="translate(463.69 315.99)">2014</text><text class="cls-12" transform="translate(601.99 315.99)">2016</text><text class="cls-13" transform="translate(10.52 192.04) rotate(-90)">Restau<tspan class="cls-14" x="34.85" y="0">r</tspan><tspan x="38.41" y="0">ants</tspan></text><rect class="cls-15" x="244.86" width="17.28" height="17.28"/><line class="cls-6" x1="246.59" y1="8.64" x2="260.41" y2="8.64"/><path class="cls-8" d="M252.8,8.64a3.56,3.56,0,1,1,3.56,3.55,3.57,3.57,0,0,1-3.56-3.55" transform="translate(-2.86)"/><path class="cls-9" d="M252.8,8.64a3.56,3.56,0,1,1,3.56,3.55,3.57,3.57,0,0,1-3.56-3.55" transform="translate(-2.86)"/><rect class="cls-15" x="322.01" width="17.28" height="17.28"/><line class="cls-7" x1="323.73" y1="8.64" x2="337.56" y2="8.64"/><path class="cls-10" d="M330,8.64a3.55,3.55,0,1,1,3.56,3.55A3.57,3.57,0,0,1,330,8.64" transform="translate(-2.86)"/><path class="cls-11" d="M330,8.64a3.55,3.55,0,1,1,3.56,3.55A3.57,3.57,0,0,1,330,8.64" transform="translate(-2.86)"/><text class="cls-13" transform="translate(264.3 11.87)">Mo<tspan class="cls-14" x="15.28" y="0">r</tspan><tspan x="18.83" y="0">ato</tspan><tspan class="cls-16" x="34.13" y="0">r</tspan><tspan x="37.94" y="0">ium</tspan></text><text class="cls-13" transform="translate(341.45 11.87)">Rela<tspan class="cls-17" x="22.62" y="0">x</tspan><tspan class="cls-18" x="27.8" y="0">ed Mo</tspan><tspan class="cls-19" x="58.38" y="0">r</tspan><tspan class="cls-20" x="61.93" y="0">ato</tspan><tspan class="cls-21" x="77.22" y="0">r</tspan><tspan class="cls-20" x="81.04" y="0">ium</tspan></text><text class="cls-13" transform="translate(187.12 87.54)">Adams Morgan</text><text class="cls-13" transform="translate(194.15 285.2)">East Dupont</text><text class="cls-13" transform="translate(192.63 231.54)">West Dupont</text><text class="cls-12" transform="translate(0 331.89)">Source: DataLensDC, D.C.<tspan class="cls-22" x="108.04" y="0"> </tspan><tspan class="cls-23" x="110.05" y="0">ABR</tspan><tspan class="cls-24" x="128.56" y="0">A</tspan></text><image width="300" height="150" transform="translate(596.81 310.45) scale(0.17 0.18)" xlink:href="../../DataLensDCsite/iframes/dcpc/dcpcSm.png"/></svg>