<svg id="Layer_1" data-name="Layer 1" xmlns="http://www.w3.org/2000/svg" xmlns:xlink="http://www.w3.org/1999/xlink" viewBox="0 0 647.14 338.86"><defs><style>.cls-1,.cls-11,.cls-12,.cls-13,.cls-14,.cls-33,.cls-34,.cls-35,.cls-4,.cls-5,.cls-7,.cls-9{fill:none;}.cls-2{clip-path:url(#clip-path);}.cls-3{fill:#f2f2f2;}.cls-4,.cls-5{stroke:#ebebeb;}.cls-11,.cls-12,.cls-13,.cls-14,.cls-4,.cls-5,.cls-7,.cls-9{stroke-linejoin:round;}.cls-4{stroke-width:0.53px;}.cls-11,.cls-33,.cls-34,.cls-35,.cls-5,.cls-7,.cls-9{stroke-width:1.07px;}.cls-6{fill:#ff9de2;}.cls-14,.cls-35,.cls-7{stroke:#ff9de2;}.cls-8{fill:#b693fe;}.cls-13,.cls-34,.cls-9{stroke:#b693fe;}.cls-10{fill:#1affbe;}.cls-11,.cls-12,.cls-33{stroke:#1affbe;}.cls-12,.cls-13,.cls-14,.cls-33,.cls-34,.cls-35{stroke-linecap:round;}.cls-12,.cls-13,.cls-14{stroke-width:0.71px;}.cls-15{font-size:11px;}.cls-15,.cls-31{fill:#4d4d4d;font-family:Helvetica, Helvetica;}.cls-16{letter-spacing:-0.02em;}.cls-17{letter-spacing:-0.05em;}.cls-18{letter-spacing:-0.01em;}.cls-19{letter-spacing:0.04em;}.cls-20{letter-spacing:-0.12em;}.cls-21{letter-spacing:-0.02em;}.cls-22{letter-spacing:0.01em;}.cls-23{letter-spacing:-0.02em;}.cls-24{letter-spacing:-0.14em;}.cls-25{letter-spacing:-0.03em;}.cls-26{letter-spacing:-0.03em;}.cls-27{letter-spacing:-0.02em;}.cls-28{letter-spacing:-0.04em;}.cls-29{letter-spacing:0em;}.cls-30{letter-spacing:0.01em;}.cls-31{font-size:9px;}.cls-32{fill:#fff;}.cls-33,.cls-34,.cls-35{stroke-miterlimit:10;}.cls-36{letter-spacing:-0.01em;}.cls-37{letter-spacing:0em;}.cls-38{letter-spacing:-0.05em;}.cls-39{letter-spacing:0em;}.cls-40{letter-spacing:-0.05em;}</style><clipPath id="clip-path" transform="translate(-2.86 -4.01)"><rect class="cls-1" x="121.15" y="26.11" width="521.37" height="281.83"/></clipPath></defs><title>nightlifeHoodProp</title><g class="cls-2"><rect class="cls-3" x="118.29" y="22.1" width="521.37" height="281.83"/><line class="cls-4" x1="191.05" y1="303.93" x2="191.05" y2="22.1"/><line class="cls-4" x1="316.33" y1="303.93" x2="316.33" y2="22.1"/><line class="cls-4" x1="441.62" y1="303.93" x2="441.62" y2="22.1"/><line class="cls-4" x1="566.9" y1="303.93" x2="566.9" y2="22.1"/><line class="cls-5" x1="128.41" y1="303.93" x2="128.41" y2="22.1"/><line class="cls-5" x1="253.69" y1="303.93" x2="253.69" y2="22.1"/><line class="cls-5" x1="378.98" y1="303.93" x2="378.98" y2="22.1"/><line class="cls-5" x1="504.26" y1="303.93" x2="504.26" y2="22.1"/><line class="cls-5" x1="629.54" y1="303.93" x2="629.54" y2="22.1"/><rect class="cls-6" x="128.41" y="294.62" width="27.84" height="2.66"/><rect class="cls-7" x="128.41" y="294.62" width="27.84" height="2.66"/><rect class="cls-8" x="156.25" y="294.62" width="389.76" height="2.66"/><rect class="cls-9" x="156.25" y="294.62" width="389.76" height="2.66"/><rect class="cls-10" x="546.02" y="294.62" width="83.52" height="2.66"/><rect class="cls-11" x="546.02" y="294.62" width="83.52" height="2.66"/><rect class="cls-6" x="128.41" y="281.32" width="58.96" height="2.66"/><rect class="cls-7" x="128.41" y="281.32" width="58.96" height="2.66"/><rect class="cls-8" x="187.37" y="281.32" width="265.3" height="2.66"/><rect class="cls-9" x="187.37" y="281.32" width="265.3" height="2.66"/><rect class="cls-10" x="452.67" y="281.32" width="176.87" height="2.66"/><rect class="cls-11" x="452.67" y="281.32" width="176.87" height="2.66"/><rect class="cls-8" x="128.41" y="268.03" width="294.78" height="2.66"/><rect class="cls-9" x="128.41" y="268.03" width="294.78" height="2.66"/><rect class="cls-10" x="423.19" y="268.03" width="206.35" height="2.66"/><rect class="cls-11" x="423.19" y="268.03" width="206.35" height="2.66"/><rect class="cls-6" x="128.41" y="254.74" width="25.06" height="2.66"/><rect class="cls-7" x="128.41" y="254.74" width="25.06" height="2.66"/><rect class="cls-8" x="153.47" y="254.74" width="238.03" height="2.66"/><rect class="cls-9" x="153.47" y="254.74" width="238.03" height="2.66"/><rect class="cls-10" x="391.5" y="254.74" width="238.03" height="2.66"/><rect class="cls-11" x="391.5" y="254.74" width="238.03" height="2.66"/><rect class="cls-6" x="128.41" y="241.44" width="15.19" height="2.66"/><rect class="cls-7" x="128.41" y="241.44" width="15.19" height="2.66"/><rect class="cls-8" x="143.6" y="241.44" width="212.6" height="2.66"/><rect class="cls-9" x="143.6" y="241.44" width="212.6" height="2.66"/><rect class="cls-10" x="356.2" y="241.44" width="273.34" height="2.66"/><rect class="cls-11" x="356.2" y="241.44" width="273.34" height="2.66"/><rect class="cls-6" x="128.41" y="228.15" width="12.53" height="2.66"/><rect class="cls-7" x="128.41" y="228.15" width="12.53" height="2.66"/><rect class="cls-8" x="140.94" y="228.15" width="200.45" height="2.66"/><rect class="cls-9" x="140.94" y="228.15" width="200.45" height="2.66"/><rect class="cls-10" x="341.39" y="228.15" width="288.15" height="2.66"/><rect class="cls-11" x="341.39" y="228.15" width="288.15" height="2.66"/><rect class="cls-8" x="128.41" y="214.86" width="207.78" height="2.66"/><rect class="cls-9" x="128.41" y="214.86" width="207.78" height="2.66"/><rect class="cls-10" x="336.2" y="214.86" width="293.34" height="2.66"/><rect class="cls-11" x="336.2" y="214.86" width="293.34" height="2.66"/><rect class="cls-6" x="128.41" y="201.56" width="35.79" height="2.66"/><rect class="cls-7" x="128.41" y="201.56" width="35.79" height="2.66"/><rect class="cls-8" x="164.21" y="201.56" width="107.38" height="2.66"/><rect class="cls-9" x="164.21" y="201.56" width="107.38" height="2.66"/><rect class="cls-10" x="271.59" y="201.56" width="357.95" height="2.66"/><rect class="cls-11" x="271.59" y="201.56" width="357.95" height="2.66"/><rect class="cls-6" x="128.41" y="188.27" width="8.35" height="2.66"/><rect class="cls-7" x="128.41" y="188.27" width="8.35" height="2.66"/><rect class="cls-8" x="136.77" y="188.27" width="133.63" height="2.66"/><rect class="cls-9" x="136.77" y="188.27" width="133.63" height="2.66"/><rect class="cls-10" x="270.4" y="188.27" width="359.14" height="2.66"/><rect class="cls-11" x="270.4" y="188.27" width="359.14" height="2.66"/><rect class="cls-6" x="128.41" y="174.97" width="45.79" height="2.66"/><rect class="cls-7" x="128.41" y="174.97" width="45.79" height="2.66"/><rect class="cls-8" x="174.2" y="174.97" width="91.58" height="2.66"/><rect class="cls-9" x="174.2" y="174.97" width="91.58" height="2.66"/><rect class="cls-10" x="265.78" y="174.97" width="363.76" height="2.66"/><rect class="cls-11" x="265.78" y="174.97" width="363.76" height="2.66"/><rect class="cls-8" x="128.41" y="161.68" width="136.67" height="2.66"/><rect class="cls-9" x="128.41" y="161.68" width="136.67" height="2.66"/><rect class="cls-10" x="265.08" y="161.68" width="364.45" height="2.66"/><rect class="cls-11" x="265.08" y="161.68" width="364.45" height="2.66"/><rect class="cls-6" x="128.41" y="148.39" width="29.17" height="2.66"/><rect class="cls-7" x="128.41" y="148.39" width="29.17" height="2.66"/><rect class="cls-8" x="157.58" y="148.39" width="84.85" height="2.66"/><rect class="cls-9" x="157.58" y="148.39" width="84.85" height="2.66"/><rect class="cls-10" x="242.43" y="148.39" width="387.11" height="2.66"/><rect class="cls-11" x="242.43" y="148.39" width="387.11" height="2.66"/><rect class="cls-8" x="128.41" y="135.09" width="106.91" height="2.66"/><rect class="cls-9" x="128.41" y="135.09" width="106.91" height="2.66"/><rect class="cls-10" x="235.32" y="135.09" width="394.22" height="2.66"/><rect class="cls-11" x="235.32" y="135.09" width="394.22" height="2.66"/><rect class="cls-8" x="128.41" y="121.8" width="86.13" height="2.66"/><rect class="cls-9" x="128.41" y="121.8" width="86.13" height="2.66"/><rect class="cls-10" x="214.54" y="121.8" width="414.99" height="2.66"/><rect class="cls-11" x="214.54" y="121.8" width="414.99" height="2.66"/><rect class="cls-8" x="128.41" y="108.51" width="85.91" height="2.66"/><rect class="cls-9" x="128.41" y="108.51" width="85.91" height="2.66"/><rect class="cls-10" x="214.32" y="108.51" width="415.22" height="2.66"/><rect class="cls-11" x="214.32" y="108.51" width="415.22" height="2.66"/><rect class="cls-8" x="128.41" y="95.21" width="73.34" height="2.66"/><rect class="cls-9" x="128.41" y="95.21" width="73.34" height="2.66"/><rect class="cls-10" x="201.75" y="95.21" width="427.79" height="2.66"/><rect class="cls-11" x="201.75" y="95.21" width="427.79" height="2.66"/><rect class="cls-8" x="128.41" y="81.92" width="66.82" height="2.66"/><rect class="cls-9" x="128.41" y="81.92" width="66.82" height="2.66"/><rect class="cls-10" x="195.23" y="81.92" width="434.31" height="2.66"/><rect class="cls-11" x="195.23" y="81.92" width="434.31" height="2.66"/><rect class="cls-6" x="128.41" y="68.62" width="32.33" height="2.66"/><rect class="cls-7" x="128.41" y="68.62" width="32.33" height="2.66"/><rect class="cls-8" x="160.74" y="68.62" width="32.33" height="2.66"/><rect class="cls-9" x="160.74" y="68.62" width="32.33" height="2.66"/><rect class="cls-10" x="193.07" y="68.62" width="436.46" height="2.66"/><rect class="cls-11" x="193.07" y="68.62" width="436.46" height="2.66"/><rect class="cls-8" x="128.41" y="55.33" width="35.79" height="2.66"/><rect class="cls-9" x="128.41" y="55.33" width="35.79" height="2.66"/><rect class="cls-10" x="164.21" y="55.33" width="465.33" height="2.66"/><rect class="cls-11" x="164.21" y="55.33" width="465.33" height="2.66"/><rect class="cls-10" x="128.41" y="42.04" width="501.12" height="2.66"/><rect class="cls-11" x="128.41" y="42.04" width="501.12" height="2.66"/><rect class="cls-10" x="128.41" y="28.74" width="501.12" height="2.66"/><rect class="cls-11" x="128.41" y="28.74" width="501.12" height="2.66"/><path class="cls-10" d="M628.84,300a3.55,3.55,0,1,1,3.56,3.55,3.57,3.57,0,0,1-3.56-3.55" transform="translate(-2.86 -4.01)"/><path class="cls-12" d="M628.84,300a3.55,3.55,0,1,1,3.56,3.55,3.57,3.57,0,0,1-3.56-3.55" transform="translate(-2.86 -4.01)"/><path class="cls-8" d="M545.32,300a3.55,3.55,0,1,1,3.56,3.55,3.57,3.57,0,0,1-3.56-3.55" transform="translate(-2.86 -4.01)"/><path class="cls-13" d="M545.32,300a3.55,3.55,0,1,1,3.56,3.55,3.57,3.57,0,0,1-3.56-3.55" transform="translate(-2.86 -4.01)"/><path class="cls-6" d="M155.56,300a3.56,3.56,0,1,1,3.55,3.55,3.57,3.57,0,0,1-3.55-3.55" transform="translate(-2.86 -4.01)"/><path class="cls-14" d="M155.56,300a3.56,3.56,0,1,1,3.55,3.55,3.57,3.57,0,0,1-3.55-3.55" transform="translate(-2.86 -4.01)"/><path class="cls-10" d="M628.84,286.67a3.55,3.55,0,1,1,3.56,3.55,3.57,3.57,0,0,1-3.56-3.55" transform="translate(-2.86 -4.01)"/><path class="cls-12" d="M628.84,286.67a3.55,3.55,0,1,1,3.56,3.55,3.57,3.57,0,0,1-3.56-3.55" transform="translate(-2.86 -4.01)"/><path class="cls-8" d="M452,286.67a3.55,3.55,0,1,1,3.55,3.55,3.56,3.56,0,0,1-3.55-3.55" transform="translate(-2.86 -4.01)"/><path class="cls-13" d="M452,286.67a3.55,3.55,0,1,1,3.55,3.55,3.56,3.56,0,0,1-3.55-3.55" transform="translate(-2.86 -4.01)"/><path class="cls-6" d="M186.67,286.67a3.56,3.56,0,1,1,3.56,3.55,3.57,3.57,0,0,1-3.56-3.55" transform="translate(-2.86 -4.01)"/><path class="cls-14" d="M186.67,286.67a3.56,3.56,0,1,1,3.56,3.55,3.57,3.57,0,0,1-3.56-3.55" transform="translate(-2.86 -4.01)"/><path class="cls-10" d="M628.84,273.37a3.55,3.55,0,1,1,3.56,3.56,3.57,3.57,0,0,1-3.56-3.56" transform="translate(-2.86 -4.01)"/><path class="cls-12" d="M628.84,273.37a3.55,3.55,0,1,1,3.56,3.56,3.57,3.57,0,0,1-3.56-3.56" transform="translate(-2.86 -4.01)"/><path class="cls-8" d="M422.5,273.37a3.55,3.55,0,1,1,3.55,3.56,3.56,3.56,0,0,1-3.55-3.56" transform="translate(-2.86 -4.01)"/><path class="cls-13" d="M422.5,273.37a3.55,3.55,0,1,1,3.55,3.56,3.56,3.56,0,0,1-3.55-3.56" transform="translate(-2.86 -4.01)"/><path class="cls-10" d="M628.84,260.08a3.55,3.55,0,1,1,3.56,3.55,3.57,3.57,0,0,1-3.56-3.55" transform="translate(-2.86 -4.01)"/><path class="cls-12" d="M628.84,260.08a3.55,3.55,0,1,1,3.56,3.55,3.57,3.57,0,0,1-3.56-3.55" transform="translate(-2.86 -4.01)"/><path class="cls-8" d="M390.81,260.08a3.56,3.56,0,1,1,3.55,3.55,3.57,3.57,0,0,1-3.55-3.55" transform="translate(-2.86 -4.01)"/><path class="cls-13" d="M390.81,260.08a3.56,3.56,0,1,1,3.55,3.55,3.57,3.57,0,0,1-3.55-3.55" transform="translate(-2.86 -4.01)"/><path class="cls-6" d="M152.77,260.08a3.56,3.56,0,1,1,3.56,3.55,3.57,3.57,0,0,1-3.56-3.55" transform="translate(-2.86 -4.01)"/><path class="cls-14" d="M152.77,260.08a3.56,3.56,0,1,1,3.56,3.55,3.57,3.57,0,0,1-3.56-3.55" transform="translate(-2.86 -4.01)"/><path class="cls-10" d="M628.84,246.78a3.55,3.55,0,1,1,3.56,3.56,3.57,3.57,0,0,1-3.56-3.56" transform="translate(-2.86 -4.01)"/><path class="cls-12" d="M628.84,246.78a3.55,3.55,0,1,1,3.56,3.56,3.57,3.57,0,0,1-3.56-3.56" transform="translate(-2.86 -4.01)"/><path class="cls-8" d="M355.5,246.78a3.55,3.55,0,1,1,3.56,3.56,3.57,3.57,0,0,1-3.56-3.56" transform="translate(-2.86 -4.01)"/><path class="cls-13" d="M355.5,246.78a3.55,3.55,0,1,1,3.56,3.56,3.57,3.57,0,0,1-3.56-3.56" transform="translate(-2.86 -4.01)"/><path class="cls-6" d="M142.9,246.78a3.56,3.56,0,1,1,3.56,3.56,3.57,3.57,0,0,1-3.56-3.56" transform="translate(-2.86 -4.01)"/><path class="cls-14" d="M142.9,246.78a3.56,3.56,0,1,1,3.56,3.56,3.57,3.57,0,0,1-3.56-3.56" transform="translate(-2.86 -4.01)"/><path class="cls-10" d="M628.84,233.49A3.55,3.55,0,1,1,632.4,237a3.57,3.57,0,0,1-3.56-3.56" transform="translate(-2.86 -4.01)"/><path class="cls-12" d="M628.84,233.49A3.55,3.55,0,1,1,632.4,237a3.57,3.57,0,0,1-3.56-3.56" transform="translate(-2.86 -4.01)"/><path class="cls-8" d="M340.7,233.49a3.55,3.55,0,1,1,3.55,3.56,3.57,3.57,0,0,1-3.55-3.56" transform="translate(-2.86 -4.01)"/><path class="cls-13" d="M340.7,233.49a3.55,3.55,0,1,1,3.55,3.56,3.57,3.57,0,0,1-3.55-3.56" transform="translate(-2.86 -4.01)"/><path class="cls-6" d="M140.25,233.49A3.56,3.56,0,1,1,143.8,237a3.57,3.57,0,0,1-3.55-3.56" transform="translate(-2.86 -4.01)"/><path class="cls-14" d="M140.25,233.49A3.56,3.56,0,1,1,143.8,237a3.57,3.57,0,0,1-3.55-3.56" transform="translate(-2.86 -4.01)"/><path class="cls-10" d="M628.84,220.2a3.55,3.55,0,1,1,3.56,3.55,3.57,3.57,0,0,1-3.56-3.55" transform="translate(-2.86 -4.01)"/><path class="cls-12" d="M628.84,220.2a3.55,3.55,0,1,1,3.56,3.55,3.57,3.57,0,0,1-3.56-3.55" transform="translate(-2.86 -4.01)"/><path class="cls-8" d="M335.5,220.2a3.55,3.55,0,1,1,3.56,3.55,3.57,3.57,0,0,1-3.56-3.55" transform="translate(-2.86 -4.01)"/><path class="cls-13" d="M335.5,220.2a3.55,3.55,0,1,1,3.56,3.55,3.57,3.57,0,0,1-3.56-3.55" transform="translate(-2.86 -4.01)"/><path class="cls-10" d="M628.84,206.9a3.55,3.55,0,1,1,3.56,3.56,3.57,3.57,0,0,1-3.56-3.56" transform="translate(-2.86 -4.01)"/><path class="cls-12" d="M628.84,206.9a3.55,3.55,0,1,1,3.56,3.56,3.57,3.57,0,0,1-3.56-3.56" transform="translate(-2.86 -4.01)"/><path class="cls-8" d="M270.9,206.9a3.56,3.56,0,1,1,3.55,3.56,3.56,3.56,0,0,1-3.55-3.56" transform="translate(-2.86 -4.01)"/><path class="cls-13" d="M270.9,206.9a3.56,3.56,0,1,1,3.55,3.56,3.56,3.56,0,0,1-3.55-3.56" transform="translate(-2.86 -4.01)"/><path class="cls-6" d="M163.51,206.9a3.56,3.56,0,1,1,3.56,3.56,3.57,3.57,0,0,1-3.56-3.56" transform="translate(-2.86 -4.01)"/><path class="cls-14" d="M163.51,206.9a3.56,3.56,0,1,1,3.56,3.56,3.57,3.57,0,0,1-3.56-3.56" transform="translate(-2.86 -4.01)"/><path class="cls-10" d="M628.84,193.61a3.55,3.55,0,1,1,3.56,3.55,3.57,3.57,0,0,1-3.56-3.55" transform="translate(-2.86 -4.01)"/><path class="cls-12" d="M628.84,193.61a3.55,3.55,0,1,1,3.56,3.55,3.57,3.57,0,0,1-3.56-3.55" transform="translate(-2.86 -4.01)"/><path class="cls-8" d="M269.7,193.61a3.55,3.55,0,1,1,3.56,3.55,3.57,3.57,0,0,1-3.56-3.55" transform="translate(-2.86 -4.01)"/><path class="cls-13" d="M269.7,193.61a3.55,3.55,0,1,1,3.56,3.55,3.57,3.57,0,0,1-3.56-3.55" transform="translate(-2.86 -4.01)"/><path class="cls-6" d="M136.07,193.61a3.55,3.55,0,1,1,3.56,3.55,3.57,3.57,0,0,1-3.56-3.55" transform="translate(-2.86 -4.01)"/><path class="cls-14" d="M136.07,193.61a3.55,3.55,0,1,1,3.56,3.55,3.57,3.57,0,0,1-3.56-3.55" transform="translate(-2.86 -4.01)"/><path class="cls-10" d="M628.84,180.31a3.55,3.55,0,1,1,3.56,3.56,3.57,3.57,0,0,1-3.56-3.56" transform="translate(-2.86 -4.01)"/><path class="cls-12" d="M628.84,180.31a3.55,3.55,0,1,1,3.56,3.56,3.57,3.57,0,0,1-3.56-3.56" transform="translate(-2.86 -4.01)"/><path class="cls-8" d="M265.08,180.31a3.56,3.56,0,1,1,3.56,3.56,3.57,3.57,0,0,1-3.56-3.56" transform="translate(-2.86 -4.01)"/><path class="cls-13" d="M265.08,180.31a3.56,3.56,0,1,1,3.56,3.56,3.57,3.57,0,0,1-3.56-3.56" transform="translate(-2.86 -4.01)"/><path class="cls-6" d="M173.51,180.31a3.56,3.56,0,1,1,3.55,3.56,3.56,3.56,0,0,1-3.55-3.56" transform="translate(-2.86 -4.01)"/><path class="cls-14" d="M173.51,180.31a3.56,3.56,0,1,1,3.55,3.56,3.56,3.56,0,0,1-3.55-3.56" transform="translate(-2.86 -4.01)"/><path class="cls-10" d="M628.84,167a3.55,3.55,0,1,1,3.56,3.56,3.57,3.57,0,0,1-3.56-3.56" transform="translate(-2.86 -4.01)"/><path class="cls-12" d="M628.84,167a3.55,3.55,0,1,1,3.56,3.56,3.57,3.57,0,0,1-3.56-3.56" transform="translate(-2.86 -4.01)"/><path class="cls-8" d="M264.39,167a3.55,3.55,0,1,1,3.55,3.56,3.56,3.56,0,0,1-3.55-3.56" transform="translate(-2.86 -4.01)"/><path class="cls-13" d="M264.39,167a3.55,3.55,0,1,1,3.55,3.56,3.56,3.56,0,0,1-3.55-3.56" transform="translate(-2.86 -4.01)"/><path class="cls-10" d="M628.84,153.73a3.55,3.55,0,1,1,3.56,3.55,3.57,3.57,0,0,1-3.56-3.55" transform="translate(-2.86 -4.01)"/><path class="cls-12" d="M628.84,153.73a3.55,3.55,0,1,1,3.56,3.55,3.57,3.57,0,0,1-3.56-3.55" transform="translate(-2.86 -4.01)"/><path class="cls-8" d="M241.73,153.73a3.56,3.56,0,1,1,3.56,3.55,3.57,3.57,0,0,1-3.56-3.55" transform="translate(-2.86 -4.01)"/><path class="cls-13" d="M241.73,153.73a3.56,3.56,0,1,1,3.56,3.55,3.57,3.57,0,0,1-3.56-3.55" transform="translate(-2.86 -4.01)"/><path class="cls-6" d="M156.88,153.73a3.56,3.56,0,1,1,3.56,3.55,3.57,3.57,0,0,1-3.56-3.55" transform="translate(-2.86 -4.01)"/><path class="cls-14" d="M156.88,153.73a3.56,3.56,0,1,1,3.56,3.55,3.57,3.57,0,0,1-3.56-3.55" transform="translate(-2.86 -4.01)"/><path class="cls-10" d="M628.84,140.43A3.55,3.55,0,1,1,632.4,144a3.57,3.57,0,0,1-3.56-3.56" transform="translate(-2.86 -4.01)"/><path class="cls-12" d="M628.84,140.43A3.55,3.55,0,1,1,632.4,144a3.57,3.57,0,0,1-3.56-3.56" transform="translate(-2.86 -4.01)"/><path class="cls-8" d="M234.62,140.43a3.56,3.56,0,1,1,3.56,3.56,3.57,3.57,0,0,1-3.56-3.56" transform="translate(-2.86 -4.01)"/><path class="cls-13" d="M234.62,140.43a3.56,3.56,0,1,1,3.56,3.56,3.57,3.57,0,0,1-3.56-3.56" transform="translate(-2.86 -4.01)"/><path class="cls-10" d="M628.84,127.14a3.55,3.55,0,1,1,3.56,3.55,3.57,3.57,0,0,1-3.56-3.55" transform="translate(-2.86 -4.01)"/><path class="cls-12" d="M628.84,127.14a3.55,3.55,0,1,1,3.56,3.55,3.57,3.57,0,0,1-3.56-3.55" transform="translate(-2.86 -4.01)"/><path class="cls-8" d="M213.85,127.14a3.56,3.56,0,1,1,3.55,3.55,3.57,3.57,0,0,1-3.55-3.55" transform="translate(-2.86 -4.01)"/><path class="cls-13" d="M213.85,127.14a3.56,3.56,0,1,1,3.55,3.55,3.57,3.57,0,0,1-3.55-3.55" transform="translate(-2.86 -4.01)"/><path class="cls-10" d="M628.84,113.85a3.55,3.55,0,1,1,3.56,3.55,3.57,3.57,0,0,1-3.56-3.55" transform="translate(-2.86 -4.01)"/><path class="cls-12" d="M628.84,113.85a3.55,3.55,0,1,1,3.56,3.55,3.57,3.57,0,0,1-3.56-3.55" transform="translate(-2.86 -4.01)"/><path class="cls-8" d="M213.62,113.85a3.56,3.56,0,1,1,3.56,3.55,3.57,3.57,0,0,1-3.56-3.55" transform="translate(-2.86 -4.01)"/><path class="cls-13" d="M213.62,113.85a3.56,3.56,0,1,1,3.56,3.55,3.57,3.57,0,0,1-3.56-3.55" transform="translate(-2.86 -4.01)"/><path class="cls-10" d="M628.84,100.55a3.55,3.55,0,1,1,3.56,3.56,3.57,3.57,0,0,1-3.56-3.56" transform="translate(-2.86 -4.01)"/><path class="cls-12" d="M628.84,100.55a3.55,3.55,0,1,1,3.56,3.56,3.57,3.57,0,0,1-3.56-3.56" transform="translate(-2.86 -4.01)"/><path class="cls-8" d="M201.05,100.55a3.56,3.56,0,1,1,3.56,3.56,3.57,3.57,0,0,1-3.56-3.56" transform="translate(-2.86 -4.01)"/><path class="cls-13" d="M201.05,100.55a3.56,3.56,0,1,1,3.56,3.56,3.57,3.57,0,0,1-3.56-3.56" transform="translate(-2.86 -4.01)"/><path class="cls-10" d="M628.84,87.26a3.55,3.55,0,1,1,3.56,3.55,3.57,3.57,0,0,1-3.56-3.55" transform="translate(-2.86 -4.01)"/><path class="cls-12" d="M628.84,87.26a3.55,3.55,0,1,1,3.56,3.55,3.57,3.57,0,0,1-3.56-3.55" transform="translate(-2.86 -4.01)"/><path class="cls-8" d="M194.53,87.26a3.56,3.56,0,1,1,3.56,3.55,3.57,3.57,0,0,1-3.56-3.55" transform="translate(-2.86 -4.01)"/><path class="cls-13" d="M194.53,87.26a3.56,3.56,0,1,1,3.56,3.55,3.57,3.57,0,0,1-3.56-3.55" transform="translate(-2.86 -4.01)"/><path class="cls-10" d="M628.84,74a3.55,3.55,0,1,1,3.56,3.56A3.57,3.57,0,0,1,628.84,74" transform="translate(-2.86 -4.01)"/><path class="cls-12" d="M628.84,74a3.55,3.55,0,1,1,3.56,3.56A3.57,3.57,0,0,1,628.84,74" transform="translate(-2.86 -4.01)"/><path class="cls-8" d="M192.38,74a3.56,3.56,0,1,1,3.55,3.56A3.56,3.56,0,0,1,192.38,74" transform="translate(-2.86 -4.01)"/><path class="cls-13" d="M192.38,74a3.56,3.56,0,1,1,3.55,3.56A3.56,3.56,0,0,1,192.38,74" transform="translate(-2.86 -4.01)"/><path class="cls-6" d="M160.05,74a3.56,3.56,0,1,1,3.55,3.56A3.56,3.56,0,0,1,160.05,74" transform="translate(-2.86 -4.01)"/><path class="cls-14" d="M160.05,74a3.56,3.56,0,1,1,3.55,3.56A3.56,3.56,0,0,1,160.05,74" transform="translate(-2.86 -4.01)"/><path class="cls-10" d="M628.84,60.67a3.55,3.55,0,1,1,3.56,3.56,3.57,3.57,0,0,1-3.56-3.56" transform="translate(-2.86 -4.01)"/><path class="cls-12" d="M628.84,60.67a3.55,3.55,0,1,1,3.56,3.56,3.57,3.57,0,0,1-3.56-3.56" transform="translate(-2.86 -4.01)"/><path class="cls-8" d="M163.51,60.67a3.56,3.56,0,1,1,3.56,3.56,3.57,3.57,0,0,1-3.56-3.56" transform="translate(-2.86 -4.01)"/><path class="cls-13" d="M163.51,60.67a3.56,3.56,0,1,1,3.56,3.56,3.57,3.57,0,0,1-3.56-3.56" transform="translate(-2.86 -4.01)"/><path class="cls-10" d="M628.84,47.38a3.55,3.55,0,1,1,3.56,3.55,3.57,3.57,0,0,1-3.56-3.55" transform="translate(-2.86 -4.01)"/><path class="cls-12" d="M628.84,47.38a3.55,3.55,0,1,1,3.56,3.55,3.57,3.57,0,0,1-3.56-3.55" transform="translate(-2.86 -4.01)"/><path class="cls-10" d="M628.84,34.08a3.55,3.55,0,1,1,3.56,3.56,3.57,3.57,0,0,1-3.56-3.56" transform="translate(-2.86 -4.01)"/><path class="cls-12" d="M628.84,34.08a3.55,3.55,0,1,1,3.56,3.56,3.57,3.57,0,0,1-3.56-3.56" transform="translate(-2.86 -4.01)"/></g><text class="cls-15" transform="translate(82.97 299.18)">Ivy City</text><text class="cls-15" transform="translate(69.5 285.89)">Brookland</text><text class="cls-15" transform="translate(52.37 272.59)">Bloomingdale</text><text class="cls-15" transform="translate(91.73 259.3)">Sh<tspan class="cls-16" x="13.45" y="0">a</tspan><tspan x="19.35" y="0">w</tspan></text><text class="cls-15" transform="translate(32.21 246.01)">Columbia Heights</text><text class="cls-15" transform="translate(75.84 232.71)"><tspan class="cls-17">P</tspan><tspan x="6.8" y="0">et</tspan><tspan class="cls-18" x="15.97" y="0">w</tspan><tspan x="23.81" y="0">o</tspan><tspan class="cls-19" x="29.92" y="0">r</tspan><tspan x="34.02" y="0">th</tspan></text><text class="cls-15" transform="translate(22.42 219.42)">Union Station, H St.</text><text class="cls-15" transform="translate(19.63 206.12)"><tspan class="cls-20">T</tspan><tspan x="5.41" y="0">a</tspan><tspan class="cls-21" x="11.53" y="0">k</tspan><tspan x="16.81" y="0">oma, B</tspan><tspan class="cls-22" x="51.66" y="0">r</tspan><tspan x="55.47" y="0">ight</tspan><tspan class="cls-18" x="73.21" y="0">w</tspan><tspan x="81.04" y="0">ood</tspan></text><text class="cls-15" transform="translate(57.27 192.83)">Logan Circle</text><text class="cls-15" transform="translate(22.6 179.54)">Dupont Circl<tspan class="cls-23" x="60.52" y="0">e</tspan><tspan x="66.47" y="0">, K St.</tspan></text><text class="cls-15" transform="translate(69.42 166.24)">N<tspan class="cls-16" x="7.94" y="0">a</tspan><tspan x="13.84" y="0">vy </tspan><tspan class="cls-24" x="27.9" y="0">Y</tspan><tspan x="33.71" y="0">ard</tspan></text><text class="cls-15" transform="translate(10.08 152.95)">D<tspan class="cls-23" x="7.94" y="0">o</tspan><tspan x="13.9" y="0">wnt</tspan><tspan class="cls-23" x="31.01" y="0">o</tspan><tspan x="36.97" y="0">wn, Chinat</tspan><tspan class="cls-23" x="88.94" y="0">o</tspan><tspan x="94.89" y="0">wn</tspan></text><text class="cls-15" transform="translate(44.44 139.65)">Adams Morgan</text><text class="cls-15" transform="translate(41.4 126.36)">Capitol Hill (SE)</text><text class="cls-15" transform="translate(71.66 113.07)"><tspan class="cls-25">W</tspan><tspan x="10.06" y="0">est End</tspan></text><text class="cls-15" transform="translate(0 99.77)">Cl<tspan class="cls-26" x="10.39" y="0">e</tspan><tspan class="cls-27" x="16.18" y="0">v</tspan><tspan x="21.41" y="0">eland/</tspan><tspan class="cls-25" x="51.38" y="0">W</tspan><tspan x="61.45" y="0">oodl</tspan><tspan class="cls-21" x="82.24" y="0">e</tspan><tspan x="88.14" y="0">y </tspan><tspan class="cls-28" x="96.7" y="0">P</tspan><tspan class="cls-29" x="103.59" y="0">a</tspan><tspan class="cls-30" x="109.71" y="0">r</tspan><tspan x="113.53" y="0">k</tspan></text><text class="cls-15" transform="translate(27.16 86.48)">F<tspan class="cls-22" x="6.72" y="0">r</tspan><tspan x="10.54" y="0">iendship Heights</tspan></text><text class="cls-15" transform="translate(61.67 73.19)">Gl<tspan class="cls-23" x="11" y="0">o</tspan><tspan class="cls-27" x="16.95" y="0">v</tspan><tspan x="22.19" y="0">er </tspan><tspan class="cls-28" x="35.03" y="0">P</tspan><tspan x="41.92" y="0">a</tspan><tspan class="cls-30" x="48.04" y="0">r</tspan><tspan x="51.86" y="0">k</tspan></text><text class="cls-15" transform="translate(59.27 59.89)">Georget<tspan class="cls-23" x="39.75" y="0">o</tspan><tspan x="45.7" y="0">wn</tspan></text><text class="cls-15" transform="translate(53.33 46.6)">Ch<tspan class="cls-26" x="14.06" y="0">e</tspan><tspan x="19.85" y="0">vy Chase</tspan></text><text class="cls-15" transform="translate(71.77 33.3)"><tspan class="cls-28">P</tspan><tspan x="6.9" y="0">alisades</tspan></text><text class="cls-31" transform="translate(125.91 315.32)">0</text><text class="cls-31" transform="translate(248.69 315.32)">25</text><text class="cls-31" transform="translate(373.97 315.32)">50</text><text class="cls-31" transform="translate(499.25 315.32)">75</text><text class="cls-31" transform="translate(622.03 315.32)">100</text><text class="cls-15" transform="translate(317.81 328.7)"><tspan class="cls-17">P</tspan><tspan x="6.8" y="0">ercent of liquor licenses</tspan></text><rect class="cls-32" x="396.98" width="17.28" height="17.28"/><rect class="cls-10" x="397.69" y="0.71" width="15.86" height="15.86"/><rect class="cls-33" x="397.69" y="0.71" width="15.86" height="15.86"/><path class="cls-10" d="M404.93,12.65a3.55,3.55,0,1,1,3.55,3.55,3.57,3.57,0,0,1-3.55-3.55" transform="translate(-2.86 -4.01)"/><path class="cls-12" d="M404.93,12.65a3.55,3.55,0,1,1,3.55,3.55,3.57,3.57,0,0,1-3.55-3.55" transform="translate(-2.86 -4.01)"/><rect class="cls-32" x="355.81" width="17.28" height="17.28"/><rect class="cls-8" x="356.52" y="0.71" width="15.86" height="15.86"/><rect class="cls-34" x="356.52" y="0.71" width="15.86" height="15.86"/><path class="cls-8" d="M363.76,12.65a3.55,3.55,0,1,1,3.55,3.55,3.57,3.57,0,0,1-3.55-3.55" transform="translate(-2.86 -4.01)"/><path class="cls-13" d="M363.76,12.65a3.55,3.55,0,1,1,3.55,3.55,3.57,3.57,0,0,1-3.55-3.55" transform="translate(-2.86 -4.01)"/><rect class="cls-32" x="289.05" width="17.28" height="17.28"/><rect class="cls-6" x="289.75" y="0.71" width="15.86" height="15.86"/><rect class="cls-35" x="289.75" y="0.71" width="15.86" height="15.86"/><path class="cls-6" d="M297,12.65a3.55,3.55,0,1,1,3.56,3.55A3.57,3.57,0,0,1,297,12.65" transform="translate(-2.86 -4.01)"/><path class="cls-14" d="M297,12.65a3.55,3.55,0,1,1,3.56,3.55A3.57,3.57,0,0,1,297,12.65" transform="translate(-2.86 -4.01)"/><text class="cls-31" transform="translate(416.41 11.87)">Restau<tspan class="cls-36" x="28.52" y="0">r</tspan><tspan class="cls-37" x="31.42" y="0">ant</tspan></text><text class="cls-31" transform="translate(375.25 11.87)">Bar</text><text class="cls-31" transform="translate(308.49 11.87)">Nightclub</text><image width="300" height="150" transform="translate(594.81 311.46) scale(0.17 0.18)" xlink:href="../../DataLensDCsite/iframes/dcpc/dcpcSm.png"/><text class="cls-31" transform="translate(0 331.7)">Source: DataLensDC, D.C.<tspan class="cls-38" x="108.04" y="0"> </tspan><tspan class="cls-39" x="110.05" y="0">ABR</tspan><tspan class="cls-40" x="128.56" y="0">A</tspan></text></svg>