<svg id="Layer_1" data-name="Layer 1" xmlns="http://www.w3.org/2000/svg" xmlns:xlink="http://www.w3.org/1999/xlink" viewBox="0 0 649.54 362.2"><defs><style>.cls-1,.cls-10,.cls-11,.cls-13,.cls-15,.cls-17,.cls-19,.cls-2,.cls-21,.cls-23,.cls-32,.cls-5,.cls-6,.cls-7,.cls-8,.cls-9{fill:none;}.cls-2{stroke:#fff;}.cls-13,.cls-15,.cls-17,.cls-19,.cls-2,.cls-21,.cls-23{stroke-linecap:round;}.cls-10,.cls-11,.cls-13,.cls-15,.cls-17,.cls-19,.cls-2,.cls-21,.cls-23,.cls-32,.cls-5,.cls-6,.cls-7,.cls-8,.cls-9{stroke-linejoin:round;}.cls-10,.cls-11,.cls-2,.cls-32,.cls-5,.cls-6,.cls-7,.cls-8,.cls-9{stroke-width:1.07px;}.cls-3{clip-path:url(#clip-path);}.cls-4{fill:#f2f2f2;}.cls-5{stroke:#ebebeb;}.cls-13,.cls-6{stroke:#4d004b;}.cls-15,.cls-7{stroke:#810f7c;}.cls-17,.cls-8{stroke:#88419d;}.cls-19,.cls-9{stroke:#8c6bb1;}.cls-10,.cls-21{stroke:#8c96c6;}.cls-11,.cls-23{stroke:#9ebcda;}.cls-12,.cls-24{fill:#4d004b;}.cls-13,.cls-15,.cls-17,.cls-19,.cls-21,.cls-23{stroke-width:0.71px;}.cls-14,.cls-25{fill:#810f7c;}.cls-16,.cls-26{fill:#88419d;}.cls-18,.cls-27{fill:#8c6bb1;}.cls-20,.cls-28,.cls-30{fill:#8c96c6;}.cls-22,.cls-29{fill:#9ebcda;}.cls-24,.cls-25,.cls-26,.cls-27,.cls-28,.cls-29,.cls-33{font-size:11px;}.cls-24,.cls-25,.cls-26,.cls-27,.cls-28,.cls-29,.cls-30,.cls-31,.cls-33{font-family:Helvetica, Helvetica;}.cls-30{font-size:10px;}.cls-31{font-size:9px;}.cls-31,.cls-33{fill:#4d4d4d;}.cls-32{stroke:#333;}.cls-34{letter-spacing:-0.05em;}.cls-35{letter-spacing:0em;}.cls-36{letter-spacing:-0.05em;}</style><clipPath id="clip-path" transform="translate(0.54 0.54)"><rect class="cls-1" x="38.98" y="5.48" width="603.54" height="324.27"/></clipPath></defs><title>turnoverPlot</title><rect class="cls-2" x="0.54" y="0.54" width="648" height="360"/><g class="cls-3"><rect class="cls-4" x="39.51" y="6.02" width="603.54" height="324.27"/><line class="cls-5" x1="39.51" y1="248.84" x2="643.06" y2="248.84"/><line class="cls-5" x1="39.51" y1="141.26" x2="643.06" y2="141.26"/><line class="cls-5" x1="39.51" y1="33.67" x2="643.06" y2="33.67"/><polyline class="cls-6" points="89.81 108.97 173.63 147.71 257.46 190.75 341.29 218.72 425.12 242.38 508.94 274.67 592.76 291.88"/><polyline class="cls-7" points="173.63 37.97 257.46 100.36 341.29 121.89 425.12 147.71 508.94 171.38 592.76 223.01"/><polyline class="cls-8" points="257.46 145.56 341.29 173.53 425.12 197.19 508.94 240.24 592.76 276.81"/><polyline class="cls-9" points="341.29 268.2 425.12 283.26 508.94 302.63 592.76 315.55"/><polyline class="cls-10" points="425.12 20.75 508.94 57.34 592.76 121.89"/><line class="cls-11" x1="508.93" y1="173.53" x2="592.76" y2="223.01"/><path class="cls-12" d="M87.32,108.44a2,2,0,1,1,2,2,2,2,0,0,1-2-2" transform="translate(0.54 0.54)"/><path class="cls-13" d="M87.32,108.44a2,2,0,1,1,2,2,2,2,0,0,1-2-2" transform="translate(0.54 0.54)"/><path class="cls-12" d="M171.15,147.17a2,2,0,1,1,2,2,2,2,0,0,1-2-2" transform="translate(0.54 0.54)"/><path class="cls-13" d="M171.15,147.17a2,2,0,1,1,2,2,2,2,0,0,1-2-2" transform="translate(0.54 0.54)"/><path class="cls-12" d="M255,190.21a2,2,0,1,1,2,1.95,2,2,0,0,1-2-1.95" transform="translate(0.54 0.54)"/><path class="cls-13" d="M255,190.21a2,2,0,1,1,2,1.95,2,2,0,0,1-2-1.95" transform="translate(0.54 0.54)"/><path class="cls-12" d="M338.8,218.18a2,2,0,1,1,2,2,2,2,0,0,1-2-2" transform="translate(0.54 0.54)"/><path class="cls-13" d="M338.8,218.18a2,2,0,1,1,2,2,2,2,0,0,1-2-2" transform="translate(0.54 0.54)"/><path class="cls-12" d="M422.62,241.85a2,2,0,1,1,2,2,2,2,0,0,1-2-2" transform="translate(0.54 0.54)"/><path class="cls-13" d="M422.62,241.85a2,2,0,1,1,2,2,2,2,0,0,1-2-2" transform="translate(0.54 0.54)"/><path class="cls-12" d="M506.45,274.13a2,2,0,1,1,1.95,2,2,2,0,0,1-1.95-2" transform="translate(0.54 0.54)"/><path class="cls-13" d="M506.45,274.13a2,2,0,1,1,1.95,2,2,2,0,0,1-1.95-2" transform="translate(0.54 0.54)"/><path class="cls-12" d="M590.27,291.34a2,2,0,1,1,2,2,2,2,0,0,1-2-2" transform="translate(0.54 0.54)"/><path class="cls-13" d="M590.27,291.34a2,2,0,1,1,2,2,2,2,0,0,1-2-2" transform="translate(0.54 0.54)"/><path class="cls-14" d="M171.15,37.43a2,2,0,1,1,2,2,2,2,0,0,1-2-2" transform="translate(0.54 0.54)"/><path class="cls-15" d="M171.15,37.43a2,2,0,1,1,2,2,2,2,0,0,1-2-2" transform="translate(0.54 0.54)"/><path class="cls-14" d="M255,99.83a2,2,0,1,1,2,2,2,2,0,0,1-2-2" transform="translate(0.54 0.54)"/><path class="cls-15" d="M255,99.83a2,2,0,1,1,2,2,2,2,0,0,1-2-2" transform="translate(0.54 0.54)"/><path class="cls-14" d="M338.8,121.35a2,2,0,1,1,2,2,2,2,0,0,1-2-2" transform="translate(0.54 0.54)"/><path class="cls-15" d="M338.8,121.35a2,2,0,1,1,2,2,2,2,0,0,1-2-2" transform="translate(0.54 0.54)"/><path class="cls-14" d="M422.62,147.17a2,2,0,1,1,2,2,2,2,0,0,1-2-2" transform="translate(0.54 0.54)"/><path class="cls-15" d="M422.62,147.17a2,2,0,1,1,2,2,2,2,0,0,1-2-2" transform="translate(0.54 0.54)"/><path class="cls-14" d="M506.45,170.84a2,2,0,1,1,1.95,2,2,2,0,0,1-1.95-2" transform="translate(0.54 0.54)"/><path class="cls-15" d="M506.45,170.84a2,2,0,1,1,1.95,2,2,2,0,0,1-1.95-2" transform="translate(0.54 0.54)"/><path class="cls-14" d="M590.27,222.48a2,2,0,1,1,2,2,2,2,0,0,1-2-2" transform="translate(0.54 0.54)"/><path class="cls-15" d="M590.27,222.48a2,2,0,1,1,2,2,2,2,0,0,1-2-2" transform="translate(0.54 0.54)"/><path class="cls-16" d="M255,145a2,2,0,1,1,2,2,2,2,0,0,1-2-2" transform="translate(0.54 0.54)"/><path class="cls-17" d="M255,145a2,2,0,1,1,2,2,2,2,0,0,1-2-2" transform="translate(0.54 0.54)"/><path class="cls-16" d="M338.8,173a2,2,0,1,1,2,2,2,2,0,0,1-2-2" transform="translate(0.54 0.54)"/><path class="cls-17" d="M338.8,173a2,2,0,1,1,2,2,2,2,0,0,1-2-2" transform="translate(0.54 0.54)"/><path class="cls-16" d="M422.62,196.66a2,2,0,1,1,2,2,2,2,0,0,1-2-2" transform="translate(0.54 0.54)"/><path class="cls-17" d="M422.62,196.66a2,2,0,1,1,2,2,2,2,0,0,1-2-2" transform="translate(0.54 0.54)"/><path class="cls-16" d="M506.45,239.7a2,2,0,1,1,1.95,2,2,2,0,0,1-1.95-2" transform="translate(0.54 0.54)"/><path class="cls-17" d="M506.45,239.7a2,2,0,1,1,1.95,2,2,2,0,0,1-1.95-2" transform="translate(0.54 0.54)"/><path class="cls-16" d="M590.27,276.28a2,2,0,1,1,2,2,2,2,0,0,1-2-2" transform="translate(0.54 0.54)"/><path class="cls-17" d="M590.27,276.28a2,2,0,1,1,2,2,2,2,0,0,1-2-2" transform="translate(0.54 0.54)"/><path class="cls-18" d="M338.8,267.67a2,2,0,1,1,2,2,2,2,0,0,1-2-2" transform="translate(0.54 0.54)"/><path class="cls-19" d="M338.8,267.67a2,2,0,1,1,2,2,2,2,0,0,1-2-2" transform="translate(0.54 0.54)"/><path class="cls-18" d="M422.62,282.73a2,2,0,1,1,2,2,2,2,0,0,1-2-2" transform="translate(0.54 0.54)"/><path class="cls-19" d="M422.62,282.73a2,2,0,1,1,2,2,2,2,0,0,1-2-2" transform="translate(0.54 0.54)"/><path class="cls-18" d="M506.45,302.1a2,2,0,1,1,1.95,2,2,2,0,0,1-1.95-2" transform="translate(0.54 0.54)"/><path class="cls-19" d="M506.45,302.1a2,2,0,1,1,1.95,2,2,2,0,0,1-1.95-2" transform="translate(0.54 0.54)"/><path class="cls-18" d="M590.27,315a2,2,0,1,1,2,2,2,2,0,0,1-2-2" transform="translate(0.54 0.54)"/><path class="cls-19" d="M590.27,315a2,2,0,1,1,2,2,2,2,0,0,1-2-2" transform="translate(0.54 0.54)"/><path class="cls-20" d="M422.62,20.22a2,2,0,1,1,2,2,2,2,0,0,1-2-2" transform="translate(0.54 0.54)"/><path class="cls-21" d="M422.62,20.22a2,2,0,1,1,2,2,2,2,0,0,1-2-2" transform="translate(0.54 0.54)"/><path class="cls-20" d="M506.45,56.8a2,2,0,1,1,1.95,2,2,2,0,0,1-1.95-2" transform="translate(0.54 0.54)"/><path class="cls-21" d="M506.45,56.8a2,2,0,1,1,1.95,2,2,2,0,0,1-1.95-2" transform="translate(0.54 0.54)"/><path class="cls-20" d="M590.27,121.35a2,2,0,1,1,2,2,2,2,0,0,1-2-2" transform="translate(0.54 0.54)"/><path class="cls-21" d="M590.27,121.35a2,2,0,1,1,2,2,2,2,0,0,1-2-2" transform="translate(0.54 0.54)"/><path class="cls-22" d="M506.45,173a2,2,0,1,1,1.95,2,2,2,0,0,1-1.95-2" transform="translate(0.54 0.54)"/><path class="cls-23" d="M506.45,173a2,2,0,1,1,1.95,2,2,2,0,0,1-1.95-2" transform="translate(0.54 0.54)"/><path class="cls-22" d="M590.27,222.48a2,2,0,1,1,2,2,2,2,0,0,1-2-2" transform="translate(0.54 0.54)"/><path class="cls-23" d="M590.27,222.48a2,2,0,1,1,2,2,2,2,0,0,1-2-2" transform="translate(0.54 0.54)"/><text class="cls-24" transform="translate(66.75 111.38)">165</text><text class="cls-24" transform="translate(596.77 297.15)">80</text><text class="cls-25" transform="translate(149.32 41.82)">198</text><text class="cls-25" transform="translate(596.76 220.48)">112</text><text class="cls-26" transform="translate(233.4 149.82)">148</text><text class="cls-26" transform="translate(596.77 279.15)">87</text><text class="cls-27" transform="translate(324.54 271.82)">91</text><text class="cls-27" transform="translate(596.77 319.15)">69</text><text class="cls-28" transform="translate(401.32 22.48)">206</text><text class="cls-28" transform="translate(596.77 126.48)">159</text><text class="cls-29" transform="translate(498.92 187.86)">135</text><text class="cls-29" transform="translate(596.76 233.15)">112</text><text class="cls-30" transform="translate(389.65 33.67)">new liquor <tspan x="0" y="12">licenses in 2014</tspan></text><text class="cls-30" transform="translate(598.32 136)">still active <tspan x="0" y="12">in 2016</tspan></text></g><text class="cls-31" transform="translate(19.58 252.08)">100</text><text class="cls-31" transform="translate(19.58 144.49)">150</text><text class="cls-31" transform="translate(19.58 36.89)">200</text><line class="cls-32" x1="89.81" y1="333.02" x2="89.81" y2="330.29"/><line class="cls-32" x1="173.64" y1="333.02" x2="173.64" y2="330.29"/><line class="cls-32" x1="257.46" y1="333.02" x2="257.46" y2="330.29"/><line class="cls-32" x1="341.29" y1="333.02" x2="341.29" y2="330.29"/><line class="cls-32" x1="425.11" y1="333.02" x2="425.11" y2="330.29"/><line class="cls-32" x1="508.93" y1="333.02" x2="508.93" y2="330.29"/><line class="cls-32" x1="592.76" y1="333.02" x2="592.76" y2="330.29"/><text class="cls-31" transform="translate(79.81 341.67)">2010</text><text class="cls-31" transform="translate(163.62 341.67)">2011</text><text class="cls-31" transform="translate(247.45 341.67)">2012</text><text class="cls-31" transform="translate(331.28 341.67)">2013</text><text class="cls-31" transform="translate(415.11 341.67)">2014</text><text class="cls-31" transform="translate(498.92 341.67)">2015</text><text class="cls-31" transform="translate(582.75 341.67)">2016</text><text class="cls-33" transform="translate(13.92 229.61) rotate(-90)">Number of nightlife liquor licenses</text><image width="300" height="150" transform="translate(597.2 333.02) scale(0.17 0.18)" xlink:href="../../../../DataLensDCsite/iframes/dcpc/dcpcSm.png"/><text class="cls-31" transform="translate(1.54 357.87)">Source: DataLensDC, D.C.<tspan class="cls-34" x="108.04" y="0"> </tspan><tspan class="cls-35" x="110.05" y="0">ABR</tspan><tspan class="cls-36" x="128.56" y="0">A</tspan></text></svg>